<mxfile host="app.diagrams.net" agent="Mozilla/5.0 (Windows NT 10.0; Win64; x64) AppleWebKit/537.36 (KHTML, like Gecko) Chrome/136.0.0.0 Safari/537.36 Edg/136.0.0.0" version="27.0.4" pages="5">
  <diagram name="Страница — 1" id="Cp8tzAppbXqF2Hu1p_r3">
    <mxGraphModel dx="1034" dy="622" grid="1" gridSize="10" guides="1" tooltips="1" connect="1" arrows="1" fold="1" page="1" pageScale="1" pageWidth="827" pageHeight="1169" math="0" shadow="0">
      <root>
        <mxCell id="0" />
        <mxCell id="1" parent="0" />
        <mxCell id="boYchxCAmhd9mLnhT97Q-9" value="" style="group" vertex="1" connectable="0" parent="1">
          <mxGeometry x="40" y="40" width="150" height="150" as="geometry" />
        </mxCell>
        <mxCell id="boYchxCAmhd9mLnhT97Q-1" value="" style="ellipse;whiteSpace=wrap;html=1;aspect=fixed;" vertex="1" parent="boYchxCAmhd9mLnhT97Q-9">
          <mxGeometry width="150" height="150" as="geometry" />
        </mxCell>
        <mxCell id="boYchxCAmhd9mLnhT97Q-2" value="LeBron James" style="text;strokeColor=none;fillColor=none;html=1;align=center;verticalAlign=middle;whiteSpace=wrap;rounded=0;fontSize=16;" vertex="1" parent="boYchxCAmhd9mLnhT97Q-9">
          <mxGeometry x="40" y="57.5" width="70" height="35" as="geometry" />
        </mxCell>
        <mxCell id="boYchxCAmhd9mLnhT97Q-12" value="" style="group" vertex="1" connectable="0" parent="boYchxCAmhd9mLnhT97Q-9">
          <mxGeometry x="60" width="30" height="30" as="geometry" />
        </mxCell>
        <mxCell id="boYchxCAmhd9mLnhT97Q-10" value="" style="ellipse;whiteSpace=wrap;html=1;" vertex="1" parent="boYchxCAmhd9mLnhT97Q-12">
          <mxGeometry width="30" height="30" as="geometry" />
        </mxCell>
        <mxCell id="boYchxCAmhd9mLnhT97Q-11" value="1" style="text;strokeColor=none;fillColor=none;html=1;align=center;verticalAlign=middle;whiteSpace=wrap;rounded=0;fontSize=16;" vertex="1" parent="boYchxCAmhd9mLnhT97Q-12">
          <mxGeometry y="5" width="30" height="20" as="geometry" />
        </mxCell>
        <mxCell id="boYchxCAmhd9mLnhT97Q-14" value="" style="group" vertex="1" connectable="0" parent="1">
          <mxGeometry x="230" y="40" width="150" height="150" as="geometry" />
        </mxCell>
        <mxCell id="boYchxCAmhd9mLnhT97Q-15" value="" style="ellipse;whiteSpace=wrap;html=1;aspect=fixed;" vertex="1" parent="boYchxCAmhd9mLnhT97Q-14">
          <mxGeometry width="150" height="150" as="geometry" />
        </mxCell>
        <mxCell id="boYchxCAmhd9mLnhT97Q-16" value="Stephen Curry" style="text;strokeColor=none;fillColor=none;html=1;align=center;verticalAlign=middle;whiteSpace=wrap;rounded=0;fontSize=16;" vertex="1" parent="boYchxCAmhd9mLnhT97Q-14">
          <mxGeometry x="40" y="57.5" width="70" height="35" as="geometry" />
        </mxCell>
        <mxCell id="boYchxCAmhd9mLnhT97Q-17" value="" style="group" vertex="1" connectable="0" parent="boYchxCAmhd9mLnhT97Q-14">
          <mxGeometry x="60" width="30" height="30" as="geometry" />
        </mxCell>
        <mxCell id="boYchxCAmhd9mLnhT97Q-18" value="" style="ellipse;whiteSpace=wrap;html=1;" vertex="1" parent="boYchxCAmhd9mLnhT97Q-17">
          <mxGeometry width="30" height="30" as="geometry" />
        </mxCell>
        <mxCell id="boYchxCAmhd9mLnhT97Q-19" value="2" style="text;strokeColor=none;fillColor=none;html=1;align=center;verticalAlign=middle;whiteSpace=wrap;rounded=0;fontSize=16;" vertex="1" parent="boYchxCAmhd9mLnhT97Q-17">
          <mxGeometry y="5" width="30" height="20" as="geometry" />
        </mxCell>
        <mxCell id="boYchxCAmhd9mLnhT97Q-22" value="" style="group" vertex="1" connectable="0" parent="1">
          <mxGeometry x="410" y="40" width="150" height="150" as="geometry" />
        </mxCell>
        <mxCell id="boYchxCAmhd9mLnhT97Q-23" value="" style="ellipse;whiteSpace=wrap;html=1;aspect=fixed;" vertex="1" parent="boYchxCAmhd9mLnhT97Q-22">
          <mxGeometry width="150" height="150" as="geometry" />
        </mxCell>
        <mxCell id="boYchxCAmhd9mLnhT97Q-24" value="Jayson Tatum" style="text;strokeColor=none;fillColor=none;html=1;align=center;verticalAlign=middle;whiteSpace=wrap;rounded=0;fontSize=16;" vertex="1" parent="boYchxCAmhd9mLnhT97Q-22">
          <mxGeometry x="40" y="57.5" width="70" height="35" as="geometry" />
        </mxCell>
        <mxCell id="boYchxCAmhd9mLnhT97Q-25" value="" style="group" vertex="1" connectable="0" parent="boYchxCAmhd9mLnhT97Q-22">
          <mxGeometry x="60" width="30" height="30" as="geometry" />
        </mxCell>
        <mxCell id="boYchxCAmhd9mLnhT97Q-26" value="" style="ellipse;whiteSpace=wrap;html=1;" vertex="1" parent="boYchxCAmhd9mLnhT97Q-25">
          <mxGeometry width="30" height="30" as="geometry" />
        </mxCell>
        <mxCell id="boYchxCAmhd9mLnhT97Q-27" value="3" style="text;strokeColor=none;fillColor=none;html=1;align=center;verticalAlign=middle;whiteSpace=wrap;rounded=0;fontSize=16;" vertex="1" parent="boYchxCAmhd9mLnhT97Q-25">
          <mxGeometry y="5" width="30" height="20" as="geometry" />
        </mxCell>
        <mxCell id="boYchxCAmhd9mLnhT97Q-28" value="" style="group" vertex="1" connectable="0" parent="boYchxCAmhd9mLnhT97Q-22">
          <mxGeometry width="150" height="150" as="geometry" />
        </mxCell>
        <mxCell id="boYchxCAmhd9mLnhT97Q-29" value="" style="ellipse;whiteSpace=wrap;html=1;aspect=fixed;" vertex="1" parent="boYchxCAmhd9mLnhT97Q-28">
          <mxGeometry width="150" height="150" as="geometry" />
        </mxCell>
        <mxCell id="boYchxCAmhd9mLnhT97Q-30" value="Jayson Tatum" style="text;strokeColor=none;fillColor=none;html=1;align=center;verticalAlign=middle;whiteSpace=wrap;rounded=0;fontSize=16;" vertex="1" parent="boYchxCAmhd9mLnhT97Q-28">
          <mxGeometry x="40" y="57.5" width="70" height="35" as="geometry" />
        </mxCell>
        <mxCell id="boYchxCAmhd9mLnhT97Q-31" value="" style="group" vertex="1" connectable="0" parent="boYchxCAmhd9mLnhT97Q-28">
          <mxGeometry x="60" width="30" height="30" as="geometry" />
        </mxCell>
        <mxCell id="boYchxCAmhd9mLnhT97Q-32" value="" style="ellipse;whiteSpace=wrap;html=1;" vertex="1" parent="boYchxCAmhd9mLnhT97Q-31">
          <mxGeometry width="30" height="30" as="geometry" />
        </mxCell>
        <mxCell id="boYchxCAmhd9mLnhT97Q-33" value="3" style="text;strokeColor=none;fillColor=none;html=1;align=center;verticalAlign=middle;whiteSpace=wrap;rounded=0;fontSize=16;" vertex="1" parent="boYchxCAmhd9mLnhT97Q-31">
          <mxGeometry y="5" width="30" height="20" as="geometry" />
        </mxCell>
        <mxCell id="boYchxCAmhd9mLnhT97Q-34" value="" style="group" vertex="1" connectable="0" parent="1">
          <mxGeometry x="590" y="40" width="150" height="150" as="geometry" />
        </mxCell>
        <mxCell id="boYchxCAmhd9mLnhT97Q-35" value="" style="ellipse;whiteSpace=wrap;html=1;aspect=fixed;" vertex="1" parent="boYchxCAmhd9mLnhT97Q-34">
          <mxGeometry width="150" height="150" as="geometry" />
        </mxCell>
        <mxCell id="boYchxCAmhd9mLnhT97Q-36" value="Zach LaVine" style="text;strokeColor=none;fillColor=none;html=1;align=center;verticalAlign=middle;whiteSpace=wrap;rounded=0;fontSize=16;" vertex="1" parent="boYchxCAmhd9mLnhT97Q-34">
          <mxGeometry x="40" y="57.5" width="70" height="35" as="geometry" />
        </mxCell>
        <mxCell id="boYchxCAmhd9mLnhT97Q-37" value="" style="group" vertex="1" connectable="0" parent="boYchxCAmhd9mLnhT97Q-34">
          <mxGeometry x="60" width="30" height="30" as="geometry" />
        </mxCell>
        <mxCell id="boYchxCAmhd9mLnhT97Q-38" value="" style="ellipse;whiteSpace=wrap;html=1;" vertex="1" parent="boYchxCAmhd9mLnhT97Q-37">
          <mxGeometry width="30" height="30" as="geometry" />
        </mxCell>
        <mxCell id="boYchxCAmhd9mLnhT97Q-39" value="4" style="text;strokeColor=none;fillColor=none;html=1;align=center;verticalAlign=middle;whiteSpace=wrap;rounded=0;fontSize=16;" vertex="1" parent="boYchxCAmhd9mLnhT97Q-37">
          <mxGeometry y="5" width="30" height="20" as="geometry" />
        </mxCell>
        <mxCell id="boYchxCAmhd9mLnhT97Q-40" value="" style="group" vertex="1" connectable="0" parent="1">
          <mxGeometry x="40" y="230" width="150" height="150" as="geometry" />
        </mxCell>
        <mxCell id="boYchxCAmhd9mLnhT97Q-41" value="" style="ellipse;whiteSpace=wrap;html=1;aspect=fixed;" vertex="1" parent="boYchxCAmhd9mLnhT97Q-40">
          <mxGeometry width="150" height="150" as="geometry" />
        </mxCell>
        <mxCell id="boYchxCAmhd9mLnhT97Q-42" value="Jimmy Butler" style="text;strokeColor=none;fillColor=none;html=1;align=center;verticalAlign=middle;whiteSpace=wrap;rounded=0;fontSize=16;" vertex="1" parent="boYchxCAmhd9mLnhT97Q-40">
          <mxGeometry x="40" y="57.5" width="70" height="35" as="geometry" />
        </mxCell>
        <mxCell id="boYchxCAmhd9mLnhT97Q-43" value="" style="group" vertex="1" connectable="0" parent="boYchxCAmhd9mLnhT97Q-40">
          <mxGeometry x="60" width="30" height="30" as="geometry" />
        </mxCell>
        <mxCell id="boYchxCAmhd9mLnhT97Q-44" value="" style="ellipse;whiteSpace=wrap;html=1;" vertex="1" parent="boYchxCAmhd9mLnhT97Q-43">
          <mxGeometry width="30" height="30" as="geometry" />
        </mxCell>
        <mxCell id="boYchxCAmhd9mLnhT97Q-45" value="5" style="text;strokeColor=none;fillColor=none;html=1;align=center;verticalAlign=middle;whiteSpace=wrap;rounded=0;fontSize=16;" vertex="1" parent="boYchxCAmhd9mLnhT97Q-43">
          <mxGeometry y="5" width="30" height="20" as="geometry" />
        </mxCell>
        <mxCell id="boYchxCAmhd9mLnhT97Q-46" value="" style="group" vertex="1" connectable="0" parent="1">
          <mxGeometry x="230" y="230" width="150" height="150" as="geometry" />
        </mxCell>
        <mxCell id="boYchxCAmhd9mLnhT97Q-47" value="" style="ellipse;whiteSpace=wrap;html=1;aspect=fixed;" vertex="1" parent="boYchxCAmhd9mLnhT97Q-46">
          <mxGeometry width="150" height="150" as="geometry" />
        </mxCell>
        <mxCell id="boYchxCAmhd9mLnhT97Q-48" value="Jalen Brunson" style="text;strokeColor=none;fillColor=none;html=1;align=center;verticalAlign=middle;whiteSpace=wrap;rounded=0;fontSize=16;" vertex="1" parent="boYchxCAmhd9mLnhT97Q-46">
          <mxGeometry x="40" y="57.5" width="70" height="35" as="geometry" />
        </mxCell>
        <mxCell id="boYchxCAmhd9mLnhT97Q-49" value="" style="group" vertex="1" connectable="0" parent="boYchxCAmhd9mLnhT97Q-46">
          <mxGeometry x="60" width="30" height="30" as="geometry" />
        </mxCell>
        <mxCell id="boYchxCAmhd9mLnhT97Q-50" value="" style="ellipse;whiteSpace=wrap;html=1;" vertex="1" parent="boYchxCAmhd9mLnhT97Q-49">
          <mxGeometry width="30" height="30" as="geometry" />
        </mxCell>
        <mxCell id="boYchxCAmhd9mLnhT97Q-51" value="6" style="text;strokeColor=none;fillColor=none;html=1;align=center;verticalAlign=middle;whiteSpace=wrap;rounded=0;fontSize=16;" vertex="1" parent="boYchxCAmhd9mLnhT97Q-49">
          <mxGeometry y="5" width="30" height="20" as="geometry" />
        </mxCell>
        <mxCell id="boYchxCAmhd9mLnhT97Q-52" value="" style="group" vertex="1" connectable="0" parent="1">
          <mxGeometry x="414" y="230" width="150" height="150" as="geometry" />
        </mxCell>
        <mxCell id="boYchxCAmhd9mLnhT97Q-53" value="" style="ellipse;whiteSpace=wrap;html=1;aspect=fixed;" vertex="1" parent="boYchxCAmhd9mLnhT97Q-52">
          <mxGeometry width="150" height="150" as="geometry" />
        </mxCell>
        <mxCell id="boYchxCAmhd9mLnhT97Q-54" value="Luka Dončić" style="text;strokeColor=none;fillColor=none;html=1;align=center;verticalAlign=middle;whiteSpace=wrap;rounded=0;fontSize=16;" vertex="1" parent="boYchxCAmhd9mLnhT97Q-52">
          <mxGeometry x="40" y="57.5" width="70" height="35" as="geometry" />
        </mxCell>
        <mxCell id="boYchxCAmhd9mLnhT97Q-55" value="" style="group" vertex="1" connectable="0" parent="boYchxCAmhd9mLnhT97Q-52">
          <mxGeometry x="60" width="30" height="30" as="geometry" />
        </mxCell>
        <mxCell id="boYchxCAmhd9mLnhT97Q-56" value="" style="ellipse;whiteSpace=wrap;html=1;" vertex="1" parent="boYchxCAmhd9mLnhT97Q-55">
          <mxGeometry width="30" height="30" as="geometry" />
        </mxCell>
        <mxCell id="boYchxCAmhd9mLnhT97Q-57" value="7" style="text;strokeColor=none;fillColor=none;html=1;align=center;verticalAlign=middle;whiteSpace=wrap;rounded=0;fontSize=16;" vertex="1" parent="boYchxCAmhd9mLnhT97Q-55">
          <mxGeometry y="5" width="30" height="20" as="geometry" />
        </mxCell>
        <mxCell id="boYchxCAmhd9mLnhT97Q-59" value="" style="group" vertex="1" connectable="0" parent="1">
          <mxGeometry x="590" y="230" width="150" height="150" as="geometry" />
        </mxCell>
        <mxCell id="boYchxCAmhd9mLnhT97Q-60" value="" style="ellipse;whiteSpace=wrap;html=1;aspect=fixed;" vertex="1" parent="boYchxCAmhd9mLnhT97Q-59">
          <mxGeometry width="150" height="150" as="geometry" />
        </mxCell>
        <mxCell id="boYchxCAmhd9mLnhT97Q-61" value="Joel Embiid" style="text;strokeColor=none;fillColor=none;html=1;align=center;verticalAlign=middle;whiteSpace=wrap;rounded=0;fontSize=16;" vertex="1" parent="boYchxCAmhd9mLnhT97Q-59">
          <mxGeometry x="40" y="57.5" width="70" height="35" as="geometry" />
        </mxCell>
        <mxCell id="boYchxCAmhd9mLnhT97Q-62" value="" style="group" vertex="1" connectable="0" parent="boYchxCAmhd9mLnhT97Q-59">
          <mxGeometry x="60" width="30" height="30" as="geometry" />
        </mxCell>
        <mxCell id="boYchxCAmhd9mLnhT97Q-63" value="" style="ellipse;whiteSpace=wrap;html=1;" vertex="1" parent="boYchxCAmhd9mLnhT97Q-62">
          <mxGeometry width="30" height="30" as="geometry" />
        </mxCell>
        <mxCell id="boYchxCAmhd9mLnhT97Q-64" value="8" style="text;strokeColor=none;fillColor=none;html=1;align=center;verticalAlign=middle;whiteSpace=wrap;rounded=0;fontSize=16;" vertex="1" parent="boYchxCAmhd9mLnhT97Q-62">
          <mxGeometry y="5" width="30" height="20" as="geometry" />
        </mxCell>
        <mxCell id="boYchxCAmhd9mLnhT97Q-65" value="" style="group" vertex="1" connectable="0" parent="1">
          <mxGeometry x="30" y="420" width="150" height="150" as="geometry" />
        </mxCell>
        <mxCell id="boYchxCAmhd9mLnhT97Q-66" value="" style="ellipse;whiteSpace=wrap;html=1;aspect=fixed;" vertex="1" parent="boYchxCAmhd9mLnhT97Q-65">
          <mxGeometry width="150" height="150" as="geometry" />
        </mxCell>
        <mxCell id="boYchxCAmhd9mLnhT97Q-67" value="Jalen Green" style="text;strokeColor=none;fillColor=none;html=1;align=center;verticalAlign=middle;whiteSpace=wrap;rounded=0;fontSize=16;" vertex="1" parent="boYchxCAmhd9mLnhT97Q-65">
          <mxGeometry x="40" y="57.5" width="70" height="35" as="geometry" />
        </mxCell>
        <mxCell id="boYchxCAmhd9mLnhT97Q-68" value="" style="group" vertex="1" connectable="0" parent="boYchxCAmhd9mLnhT97Q-65">
          <mxGeometry x="60" width="30" height="30" as="geometry" />
        </mxCell>
        <mxCell id="boYchxCAmhd9mLnhT97Q-69" value="" style="ellipse;whiteSpace=wrap;html=1;" vertex="1" parent="boYchxCAmhd9mLnhT97Q-68">
          <mxGeometry width="30" height="30" as="geometry" />
        </mxCell>
        <mxCell id="boYchxCAmhd9mLnhT97Q-70" value="9" style="text;strokeColor=none;fillColor=none;html=1;align=center;verticalAlign=middle;whiteSpace=wrap;rounded=0;fontSize=16;" vertex="1" parent="boYchxCAmhd9mLnhT97Q-68">
          <mxGeometry y="5" width="30" height="20" as="geometry" />
        </mxCell>
        <mxCell id="boYchxCAmhd9mLnhT97Q-71" value="" style="group" vertex="1" connectable="0" parent="1">
          <mxGeometry x="30" y="420" width="150" height="150" as="geometry" />
        </mxCell>
        <mxCell id="boYchxCAmhd9mLnhT97Q-72" value="" style="ellipse;whiteSpace=wrap;html=1;aspect=fixed;" vertex="1" parent="boYchxCAmhd9mLnhT97Q-71">
          <mxGeometry width="150" height="150" as="geometry" />
        </mxCell>
        <mxCell id="boYchxCAmhd9mLnhT97Q-73" value="Jalen Green" style="text;strokeColor=none;fillColor=none;html=1;align=center;verticalAlign=middle;whiteSpace=wrap;rounded=0;fontSize=16;" vertex="1" parent="boYchxCAmhd9mLnhT97Q-71">
          <mxGeometry x="40" y="57.5" width="70" height="35" as="geometry" />
        </mxCell>
        <mxCell id="boYchxCAmhd9mLnhT97Q-74" value="" style="group" vertex="1" connectable="0" parent="boYchxCAmhd9mLnhT97Q-71">
          <mxGeometry x="60" width="30" height="30" as="geometry" />
        </mxCell>
        <mxCell id="boYchxCAmhd9mLnhT97Q-75" value="" style="ellipse;whiteSpace=wrap;html=1;" vertex="1" parent="boYchxCAmhd9mLnhT97Q-74">
          <mxGeometry width="30" height="30" as="geometry" />
        </mxCell>
        <mxCell id="boYchxCAmhd9mLnhT97Q-76" value="9" style="text;strokeColor=none;fillColor=none;html=1;align=center;verticalAlign=middle;whiteSpace=wrap;rounded=0;fontSize=16;" vertex="1" parent="boYchxCAmhd9mLnhT97Q-74">
          <mxGeometry y="5" width="30" height="20" as="geometry" />
        </mxCell>
        <mxCell id="boYchxCAmhd9mLnhT97Q-77" value="" style="group" vertex="1" connectable="0" parent="1">
          <mxGeometry x="230" y="420" width="150" height="150" as="geometry" />
        </mxCell>
        <mxCell id="boYchxCAmhd9mLnhT97Q-78" value="" style="ellipse;whiteSpace=wrap;html=1;aspect=fixed;" vertex="1" parent="boYchxCAmhd9mLnhT97Q-77">
          <mxGeometry width="150" height="150" as="geometry" />
        </mxCell>
        <mxCell id="boYchxCAmhd9mLnhT97Q-79" value="Kevin Durant" style="text;strokeColor=none;fillColor=none;html=1;align=center;verticalAlign=middle;whiteSpace=wrap;rounded=0;fontSize=16;" vertex="1" parent="boYchxCAmhd9mLnhT97Q-77">
          <mxGeometry x="40" y="57.5" width="70" height="35" as="geometry" />
        </mxCell>
        <mxCell id="boYchxCAmhd9mLnhT97Q-80" value="" style="group" vertex="1" connectable="0" parent="boYchxCAmhd9mLnhT97Q-77">
          <mxGeometry x="60" width="30" height="30" as="geometry" />
        </mxCell>
        <mxCell id="boYchxCAmhd9mLnhT97Q-81" value="" style="ellipse;whiteSpace=wrap;html=1;" vertex="1" parent="boYchxCAmhd9mLnhT97Q-80">
          <mxGeometry width="30" height="30" as="geometry" />
        </mxCell>
        <mxCell id="boYchxCAmhd9mLnhT97Q-82" value="10" style="text;strokeColor=none;fillColor=none;html=1;align=center;verticalAlign=middle;whiteSpace=wrap;rounded=0;fontSize=16;" vertex="1" parent="boYchxCAmhd9mLnhT97Q-80">
          <mxGeometry y="5" width="30" height="20" as="geometry" />
        </mxCell>
      </root>
    </mxGraphModel>
  </diagram>
  <diagram id="WBsJFjhAykLC0t4J7Ujq" name="Страница — 2">
    <mxGraphModel dx="1434" dy="1422" grid="1" gridSize="10" guides="1" tooltips="1" connect="1" arrows="1" fold="1" page="0" pageScale="1" pageWidth="827" pageHeight="1169" math="0" shadow="0">
      <root>
        <mxCell id="0" />
        <mxCell id="1" parent="0" />
        <mxCell id="GhgP5nAanEcricTXD1zz-7" value="" style="group" vertex="1" connectable="0" parent="1">
          <mxGeometry x="-260" y="-560" width="170" height="110" as="geometry" />
        </mxCell>
        <mxCell id="GhgP5nAanEcricTXD1zz-2" value="" style="rounded=0;whiteSpace=wrap;html=1;" vertex="1" parent="GhgP5nAanEcricTXD1zz-7">
          <mxGeometry width="170" height="110" as="geometry" />
        </mxCell>
        <mxCell id="GhgP5nAanEcricTXD1zz-3" value="Los Angeles Lakers" style="text;strokeColor=none;fillColor=none;html=1;align=center;verticalAlign=middle;whiteSpace=wrap;rounded=0;fontSize=16;" vertex="1" parent="GhgP5nAanEcricTXD1zz-7">
          <mxGeometry x="17.5" y="20" width="135" height="70" as="geometry" />
        </mxCell>
        <mxCell id="GhgP5nAanEcricTXD1zz-6" value="" style="group" vertex="1" connectable="0" parent="GhgP5nAanEcricTXD1zz-7">
          <mxGeometry x="60" width="50" height="30" as="geometry" />
        </mxCell>
        <mxCell id="GhgP5nAanEcricTXD1zz-4" value="" style="rounded=0;whiteSpace=wrap;html=1;" vertex="1" parent="GhgP5nAanEcricTXD1zz-6">
          <mxGeometry width="50" height="30" as="geometry" />
        </mxCell>
        <mxCell id="GhgP5nAanEcricTXD1zz-5" value="1" style="text;strokeColor=none;fillColor=none;html=1;align=center;verticalAlign=middle;whiteSpace=wrap;rounded=0;fontSize=16;" vertex="1" parent="GhgP5nAanEcricTXD1zz-6">
          <mxGeometry x="6.25" y="7.5" width="37.5" height="15" as="geometry" />
        </mxCell>
        <mxCell id="GhgP5nAanEcricTXD1zz-9" value="" style="group" vertex="1" connectable="0" parent="1">
          <mxGeometry x="-40" y="-560" width="170" height="110" as="geometry" />
        </mxCell>
        <mxCell id="GhgP5nAanEcricTXD1zz-10" value="" style="rounded=0;whiteSpace=wrap;html=1;" vertex="1" parent="GhgP5nAanEcricTXD1zz-9">
          <mxGeometry width="170" height="110" as="geometry" />
        </mxCell>
        <mxCell id="GhgP5nAanEcricTXD1zz-11" value="Golden State Warriors" style="text;strokeColor=none;fillColor=none;html=1;align=center;verticalAlign=middle;whiteSpace=wrap;rounded=0;fontSize=16;" vertex="1" parent="GhgP5nAanEcricTXD1zz-9">
          <mxGeometry x="17.5" y="20" width="135" height="70" as="geometry" />
        </mxCell>
        <mxCell id="GhgP5nAanEcricTXD1zz-12" value="" style="group" vertex="1" connectable="0" parent="GhgP5nAanEcricTXD1zz-9">
          <mxGeometry x="60" width="50" height="30" as="geometry" />
        </mxCell>
        <mxCell id="GhgP5nAanEcricTXD1zz-13" value="" style="rounded=0;whiteSpace=wrap;html=1;" vertex="1" parent="GhgP5nAanEcricTXD1zz-12">
          <mxGeometry width="50" height="30" as="geometry" />
        </mxCell>
        <mxCell id="GhgP5nAanEcricTXD1zz-14" value="2" style="text;strokeColor=none;fillColor=none;html=1;align=center;verticalAlign=middle;whiteSpace=wrap;rounded=0;fontSize=16;" vertex="1" parent="GhgP5nAanEcricTXD1zz-12">
          <mxGeometry x="6.25" y="7.5" width="37.5" height="15" as="geometry" />
        </mxCell>
        <mxCell id="GhgP5nAanEcricTXD1zz-15" value="" style="group" vertex="1" connectable="0" parent="1">
          <mxGeometry x="190" y="-560" width="170" height="110" as="geometry" />
        </mxCell>
        <mxCell id="GhgP5nAanEcricTXD1zz-16" value="" style="rounded=0;whiteSpace=wrap;html=1;" vertex="1" parent="GhgP5nAanEcricTXD1zz-15">
          <mxGeometry width="170" height="110" as="geometry" />
        </mxCell>
        <mxCell id="GhgP5nAanEcricTXD1zz-17" value="Boston Celtics" style="text;strokeColor=none;fillColor=none;html=1;align=center;verticalAlign=middle;whiteSpace=wrap;rounded=0;fontSize=16;" vertex="1" parent="GhgP5nAanEcricTXD1zz-15">
          <mxGeometry x="17.5" y="20" width="135" height="70" as="geometry" />
        </mxCell>
        <mxCell id="GhgP5nAanEcricTXD1zz-18" value="" style="group" vertex="1" connectable="0" parent="GhgP5nAanEcricTXD1zz-15">
          <mxGeometry x="60" width="50" height="30" as="geometry" />
        </mxCell>
        <mxCell id="GhgP5nAanEcricTXD1zz-19" value="" style="rounded=0;whiteSpace=wrap;html=1;" vertex="1" parent="GhgP5nAanEcricTXD1zz-18">
          <mxGeometry width="50" height="30" as="geometry" />
        </mxCell>
        <mxCell id="GhgP5nAanEcricTXD1zz-20" value="3" style="text;strokeColor=none;fillColor=none;html=1;align=center;verticalAlign=middle;whiteSpace=wrap;rounded=0;fontSize=16;" vertex="1" parent="GhgP5nAanEcricTXD1zz-18">
          <mxGeometry x="6.25" y="7.5" width="37.5" height="15" as="geometry" />
        </mxCell>
        <mxCell id="GhgP5nAanEcricTXD1zz-21" value="" style="group" vertex="1" connectable="0" parent="1">
          <mxGeometry x="400" y="-560" width="170" height="110" as="geometry" />
        </mxCell>
        <mxCell id="GhgP5nAanEcricTXD1zz-22" value="" style="rounded=0;whiteSpace=wrap;html=1;" vertex="1" parent="GhgP5nAanEcricTXD1zz-21">
          <mxGeometry width="170" height="110" as="geometry" />
        </mxCell>
        <mxCell id="GhgP5nAanEcricTXD1zz-23" value="Chicago Bulls" style="text;strokeColor=none;fillColor=none;html=1;align=center;verticalAlign=middle;whiteSpace=wrap;rounded=0;fontSize=16;" vertex="1" parent="GhgP5nAanEcricTXD1zz-21">
          <mxGeometry x="17.5" y="20" width="135" height="70" as="geometry" />
        </mxCell>
        <mxCell id="GhgP5nAanEcricTXD1zz-24" value="" style="group" vertex="1" connectable="0" parent="GhgP5nAanEcricTXD1zz-21">
          <mxGeometry x="60" width="50" height="30" as="geometry" />
        </mxCell>
        <mxCell id="GhgP5nAanEcricTXD1zz-25" value="" style="rounded=0;whiteSpace=wrap;html=1;" vertex="1" parent="GhgP5nAanEcricTXD1zz-24">
          <mxGeometry width="50" height="30" as="geometry" />
        </mxCell>
        <mxCell id="GhgP5nAanEcricTXD1zz-26" value="4" style="text;strokeColor=none;fillColor=none;html=1;align=center;verticalAlign=middle;whiteSpace=wrap;rounded=0;fontSize=16;" vertex="1" parent="GhgP5nAanEcricTXD1zz-24">
          <mxGeometry x="6.25" y="7.5" width="37.5" height="15" as="geometry" />
        </mxCell>
        <mxCell id="GhgP5nAanEcricTXD1zz-27" value="" style="group" vertex="1" connectable="0" parent="1">
          <mxGeometry x="-260" y="-400" width="170" height="110" as="geometry" />
        </mxCell>
        <mxCell id="GhgP5nAanEcricTXD1zz-28" value="" style="rounded=0;whiteSpace=wrap;html=1;" vertex="1" parent="GhgP5nAanEcricTXD1zz-27">
          <mxGeometry width="170" height="110" as="geometry" />
        </mxCell>
        <mxCell id="GhgP5nAanEcricTXD1zz-29" value="Miami Heat" style="text;strokeColor=none;fillColor=none;html=1;align=center;verticalAlign=middle;whiteSpace=wrap;rounded=0;fontSize=16;" vertex="1" parent="GhgP5nAanEcricTXD1zz-27">
          <mxGeometry x="17.5" y="20" width="135" height="70" as="geometry" />
        </mxCell>
        <mxCell id="GhgP5nAanEcricTXD1zz-30" value="" style="group" vertex="1" connectable="0" parent="GhgP5nAanEcricTXD1zz-27">
          <mxGeometry x="60" width="50" height="30" as="geometry" />
        </mxCell>
        <mxCell id="GhgP5nAanEcricTXD1zz-31" value="" style="rounded=0;whiteSpace=wrap;html=1;" vertex="1" parent="GhgP5nAanEcricTXD1zz-30">
          <mxGeometry width="50" height="30" as="geometry" />
        </mxCell>
        <mxCell id="GhgP5nAanEcricTXD1zz-32" value="5" style="text;strokeColor=none;fillColor=none;html=1;align=center;verticalAlign=middle;whiteSpace=wrap;rounded=0;fontSize=16;" vertex="1" parent="GhgP5nAanEcricTXD1zz-30">
          <mxGeometry x="6.25" y="7.5" width="37.5" height="15" as="geometry" />
        </mxCell>
        <mxCell id="GhgP5nAanEcricTXD1zz-33" value="" style="group" vertex="1" connectable="0" parent="1">
          <mxGeometry x="-40" y="-400" width="170" height="110" as="geometry" />
        </mxCell>
        <mxCell id="GhgP5nAanEcricTXD1zz-34" value="" style="rounded=0;whiteSpace=wrap;html=1;" vertex="1" parent="GhgP5nAanEcricTXD1zz-33">
          <mxGeometry width="170" height="110" as="geometry" />
        </mxCell>
        <mxCell id="GhgP5nAanEcricTXD1zz-35" value="New York Knicks" style="text;strokeColor=none;fillColor=none;html=1;align=center;verticalAlign=middle;whiteSpace=wrap;rounded=0;fontSize=16;" vertex="1" parent="GhgP5nAanEcricTXD1zz-33">
          <mxGeometry x="17.5" y="20" width="135" height="70" as="geometry" />
        </mxCell>
        <mxCell id="GhgP5nAanEcricTXD1zz-36" value="" style="group" vertex="1" connectable="0" parent="GhgP5nAanEcricTXD1zz-33">
          <mxGeometry x="60" width="50" height="30" as="geometry" />
        </mxCell>
        <mxCell id="GhgP5nAanEcricTXD1zz-37" value="" style="rounded=0;whiteSpace=wrap;html=1;" vertex="1" parent="GhgP5nAanEcricTXD1zz-36">
          <mxGeometry width="50" height="30" as="geometry" />
        </mxCell>
        <mxCell id="GhgP5nAanEcricTXD1zz-38" value="6" style="text;strokeColor=none;fillColor=none;html=1;align=center;verticalAlign=middle;whiteSpace=wrap;rounded=0;fontSize=16;" vertex="1" parent="GhgP5nAanEcricTXD1zz-36">
          <mxGeometry x="6.25" y="7.5" width="37.5" height="15" as="geometry" />
        </mxCell>
        <mxCell id="GhgP5nAanEcricTXD1zz-39" value="" style="group" vertex="1" connectable="0" parent="1">
          <mxGeometry x="180" y="-400" width="170" height="110" as="geometry" />
        </mxCell>
        <mxCell id="GhgP5nAanEcricTXD1zz-40" value="" style="rounded=0;whiteSpace=wrap;html=1;" vertex="1" parent="GhgP5nAanEcricTXD1zz-39">
          <mxGeometry width="170" height="110" as="geometry" />
        </mxCell>
        <mxCell id="GhgP5nAanEcricTXD1zz-41" value="Dallas Mavericks" style="text;strokeColor=none;fillColor=none;html=1;align=center;verticalAlign=middle;whiteSpace=wrap;rounded=0;fontSize=16;" vertex="1" parent="GhgP5nAanEcricTXD1zz-39">
          <mxGeometry x="17.5" y="20" width="135" height="70" as="geometry" />
        </mxCell>
        <mxCell id="GhgP5nAanEcricTXD1zz-42" value="" style="group" vertex="1" connectable="0" parent="GhgP5nAanEcricTXD1zz-39">
          <mxGeometry x="60" width="50" height="30" as="geometry" />
        </mxCell>
        <mxCell id="GhgP5nAanEcricTXD1zz-43" value="" style="rounded=0;whiteSpace=wrap;html=1;" vertex="1" parent="GhgP5nAanEcricTXD1zz-42">
          <mxGeometry width="50" height="30" as="geometry" />
        </mxCell>
        <mxCell id="GhgP5nAanEcricTXD1zz-44" value="7" style="text;strokeColor=none;fillColor=none;html=1;align=center;verticalAlign=middle;whiteSpace=wrap;rounded=0;fontSize=16;" vertex="1" parent="GhgP5nAanEcricTXD1zz-42">
          <mxGeometry x="6.25" y="7.5" width="37.5" height="15" as="geometry" />
        </mxCell>
        <mxCell id="GhgP5nAanEcricTXD1zz-45" value="" style="group" vertex="1" connectable="0" parent="1">
          <mxGeometry x="400" y="-400" width="170" height="110" as="geometry" />
        </mxCell>
        <mxCell id="GhgP5nAanEcricTXD1zz-46" value="" style="rounded=0;whiteSpace=wrap;html=1;" vertex="1" parent="GhgP5nAanEcricTXD1zz-45">
          <mxGeometry width="170" height="110" as="geometry" />
        </mxCell>
        <mxCell id="GhgP5nAanEcricTXD1zz-47" value="Philadelphia 76ers" style="text;strokeColor=none;fillColor=none;html=1;align=center;verticalAlign=middle;whiteSpace=wrap;rounded=0;fontSize=16;" vertex="1" parent="GhgP5nAanEcricTXD1zz-45">
          <mxGeometry x="17.5" y="20" width="135" height="70" as="geometry" />
        </mxCell>
        <mxCell id="GhgP5nAanEcricTXD1zz-48" value="" style="group" vertex="1" connectable="0" parent="GhgP5nAanEcricTXD1zz-45">
          <mxGeometry x="60" width="50" height="30" as="geometry" />
        </mxCell>
        <mxCell id="GhgP5nAanEcricTXD1zz-49" value="" style="rounded=0;whiteSpace=wrap;html=1;" vertex="1" parent="GhgP5nAanEcricTXD1zz-48">
          <mxGeometry width="50" height="30" as="geometry" />
        </mxCell>
        <mxCell id="GhgP5nAanEcricTXD1zz-50" value="8" style="text;strokeColor=none;fillColor=none;html=1;align=center;verticalAlign=middle;whiteSpace=wrap;rounded=0;fontSize=16;" vertex="1" parent="GhgP5nAanEcricTXD1zz-48">
          <mxGeometry x="6.25" y="7.5" width="37.5" height="15" as="geometry" />
        </mxCell>
        <mxCell id="GhgP5nAanEcricTXD1zz-51" value="" style="group" vertex="1" connectable="0" parent="1">
          <mxGeometry x="-260" y="-230" width="170" height="110" as="geometry" />
        </mxCell>
        <mxCell id="GhgP5nAanEcricTXD1zz-52" value="" style="rounded=0;whiteSpace=wrap;html=1;" vertex="1" parent="GhgP5nAanEcricTXD1zz-51">
          <mxGeometry width="170" height="110" as="geometry" />
        </mxCell>
        <mxCell id="GhgP5nAanEcricTXD1zz-53" value="Houston Rockets" style="text;strokeColor=none;fillColor=none;html=1;align=center;verticalAlign=middle;whiteSpace=wrap;rounded=0;fontSize=16;" vertex="1" parent="GhgP5nAanEcricTXD1zz-51">
          <mxGeometry x="17.5" y="20" width="135" height="70" as="geometry" />
        </mxCell>
        <mxCell id="GhgP5nAanEcricTXD1zz-54" value="" style="group" vertex="1" connectable="0" parent="GhgP5nAanEcricTXD1zz-51">
          <mxGeometry x="60" width="50" height="30" as="geometry" />
        </mxCell>
        <mxCell id="GhgP5nAanEcricTXD1zz-55" value="" style="rounded=0;whiteSpace=wrap;html=1;" vertex="1" parent="GhgP5nAanEcricTXD1zz-54">
          <mxGeometry width="50" height="30" as="geometry" />
        </mxCell>
        <mxCell id="GhgP5nAanEcricTXD1zz-56" value="9" style="text;strokeColor=none;fillColor=none;html=1;align=center;verticalAlign=middle;whiteSpace=wrap;rounded=0;fontSize=16;" vertex="1" parent="GhgP5nAanEcricTXD1zz-54">
          <mxGeometry x="6.25" y="7.5" width="37.5" height="15" as="geometry" />
        </mxCell>
        <mxCell id="GhgP5nAanEcricTXD1zz-57" value="" style="group" vertex="1" connectable="0" parent="1">
          <mxGeometry x="-40" y="-230" width="170" height="110" as="geometry" />
        </mxCell>
        <mxCell id="GhgP5nAanEcricTXD1zz-58" value="" style="rounded=0;whiteSpace=wrap;html=1;" vertex="1" parent="GhgP5nAanEcricTXD1zz-57">
          <mxGeometry width="170" height="110" as="geometry" />
        </mxCell>
        <mxCell id="GhgP5nAanEcricTXD1zz-59" value="Brooklyn Nets" style="text;strokeColor=none;fillColor=none;html=1;align=center;verticalAlign=middle;whiteSpace=wrap;rounded=0;fontSize=16;" vertex="1" parent="GhgP5nAanEcricTXD1zz-57">
          <mxGeometry x="17.5" y="20" width="135" height="70" as="geometry" />
        </mxCell>
        <mxCell id="GhgP5nAanEcricTXD1zz-60" value="" style="group" vertex="1" connectable="0" parent="GhgP5nAanEcricTXD1zz-57">
          <mxGeometry x="60" width="50" height="30" as="geometry" />
        </mxCell>
        <mxCell id="GhgP5nAanEcricTXD1zz-61" value="" style="rounded=0;whiteSpace=wrap;html=1;" vertex="1" parent="GhgP5nAanEcricTXD1zz-60">
          <mxGeometry width="50" height="30" as="geometry" />
        </mxCell>
        <mxCell id="GhgP5nAanEcricTXD1zz-62" value="10" style="text;strokeColor=none;fillColor=none;html=1;align=center;verticalAlign=middle;whiteSpace=wrap;rounded=0;fontSize=16;" vertex="1" parent="GhgP5nAanEcricTXD1zz-60">
          <mxGeometry x="6.25" y="7.5" width="37.5" height="15" as="geometry" />
        </mxCell>
      </root>
    </mxGraphModel>
  </diagram>
  <diagram id="9A926bkUn8iY7rOIvbtU" name="Страница — 6">
    <mxGraphModel dx="1034" dy="2222" grid="1" gridSize="10" guides="1" tooltips="1" connect="1" arrows="1" fold="1" page="0" pageScale="1" pageWidth="827" pageHeight="1169" math="0" shadow="0">
      <root>
        <mxCell id="0" />
        <mxCell id="1" parent="0" />
        <mxCell id="Gv0HvlbKG_xCyjRgvlj9-9" value="" style="group" vertex="1" connectable="0" parent="1">
          <mxGeometry x="10" y="-1360" width="510" height="150" as="geometry" />
        </mxCell>
        <mxCell id="1nmAZxt2wlKEHH9EciRf-1" value="" style="group" vertex="1" connectable="0" parent="Gv0HvlbKG_xCyjRgvlj9-9">
          <mxGeometry width="150" height="150" as="geometry" />
        </mxCell>
        <mxCell id="1nmAZxt2wlKEHH9EciRf-2" value="" style="ellipse;whiteSpace=wrap;html=1;aspect=fixed;" vertex="1" parent="1nmAZxt2wlKEHH9EciRf-1">
          <mxGeometry width="150" height="150" as="geometry" />
        </mxCell>
        <mxCell id="1nmAZxt2wlKEHH9EciRf-3" value="LeBron James" style="text;strokeColor=none;fillColor=none;html=1;align=center;verticalAlign=middle;whiteSpace=wrap;rounded=0;fontSize=16;" vertex="1" parent="1nmAZxt2wlKEHH9EciRf-1">
          <mxGeometry x="40" y="57.5" width="70" height="35" as="geometry" />
        </mxCell>
        <mxCell id="1nmAZxt2wlKEHH9EciRf-4" value="" style="group" vertex="1" connectable="0" parent="1nmAZxt2wlKEHH9EciRf-1">
          <mxGeometry x="60" width="30" height="30" as="geometry" />
        </mxCell>
        <mxCell id="1nmAZxt2wlKEHH9EciRf-5" value="" style="ellipse;whiteSpace=wrap;html=1;" vertex="1" parent="1nmAZxt2wlKEHH9EciRf-4">
          <mxGeometry width="30" height="30" as="geometry" />
        </mxCell>
        <mxCell id="1nmAZxt2wlKEHH9EciRf-6" value="1" style="text;strokeColor=none;fillColor=none;html=1;align=center;verticalAlign=middle;whiteSpace=wrap;rounded=0;fontSize=16;" vertex="1" parent="1nmAZxt2wlKEHH9EciRf-4">
          <mxGeometry y="5" width="30" height="20" as="geometry" />
        </mxCell>
        <mxCell id="Gv0HvlbKG_xCyjRgvlj9-1" value="" style="group" vertex="1" connectable="0" parent="Gv0HvlbKG_xCyjRgvlj9-9">
          <mxGeometry x="340" y="20" width="170" height="110" as="geometry" />
        </mxCell>
        <mxCell id="Gv0HvlbKG_xCyjRgvlj9-2" value="" style="rounded=0;whiteSpace=wrap;html=1;" vertex="1" parent="Gv0HvlbKG_xCyjRgvlj9-1">
          <mxGeometry width="170" height="110" as="geometry" />
        </mxCell>
        <mxCell id="Gv0HvlbKG_xCyjRgvlj9-3" value="Los Angeles Lakers" style="text;strokeColor=none;fillColor=none;html=1;align=center;verticalAlign=middle;whiteSpace=wrap;rounded=0;fontSize=16;" vertex="1" parent="Gv0HvlbKG_xCyjRgvlj9-1">
          <mxGeometry x="17.5" y="20" width="135" height="70" as="geometry" />
        </mxCell>
        <mxCell id="Gv0HvlbKG_xCyjRgvlj9-4" value="" style="group" vertex="1" connectable="0" parent="Gv0HvlbKG_xCyjRgvlj9-1">
          <mxGeometry x="60" width="50" height="30" as="geometry" />
        </mxCell>
        <mxCell id="Gv0HvlbKG_xCyjRgvlj9-5" value="" style="rounded=0;whiteSpace=wrap;html=1;" vertex="1" parent="Gv0HvlbKG_xCyjRgvlj9-4">
          <mxGeometry width="50" height="30" as="geometry" />
        </mxCell>
        <mxCell id="Gv0HvlbKG_xCyjRgvlj9-6" value="1" style="text;strokeColor=none;fillColor=none;html=1;align=center;verticalAlign=middle;whiteSpace=wrap;rounded=0;fontSize=16;" vertex="1" parent="Gv0HvlbKG_xCyjRgvlj9-4">
          <mxGeometry x="6.25" y="7.5" width="37.5" height="15" as="geometry" />
        </mxCell>
        <mxCell id="Gv0HvlbKG_xCyjRgvlj9-7" value="" style="shape=flexArrow;endArrow=classic;html=1;rounded=0;fontSize=12;startSize=8;endSize=8;curved=1;exitX=1;exitY=0.5;exitDx=0;exitDy=0;exitPerimeter=0;" edge="1" parent="Gv0HvlbKG_xCyjRgvlj9-9" source="1nmAZxt2wlKEHH9EciRf-2">
          <mxGeometry width="50" height="50" relative="1" as="geometry">
            <mxPoint x="160" y="80" as="sourcePoint" />
            <mxPoint x="340" y="75" as="targetPoint" />
          </mxGeometry>
        </mxCell>
        <mxCell id="Gv0HvlbKG_xCyjRgvlj9-8" value="Игрок принадлежит команде" style="text;strokeColor=none;fillColor=none;html=1;align=center;verticalAlign=middle;whiteSpace=wrap;rounded=0;fontSize=16;" vertex="1" parent="Gv0HvlbKG_xCyjRgvlj9-9">
          <mxGeometry x="200" y="20" width="60" height="30" as="geometry" />
        </mxCell>
        <mxCell id="Gv0HvlbKG_xCyjRgvlj9-10" value="" style="group" vertex="1" connectable="0" parent="1">
          <mxGeometry y="-1150" width="510" height="150" as="geometry" />
        </mxCell>
        <mxCell id="Gv0HvlbKG_xCyjRgvlj9-11" value="" style="group" vertex="1" connectable="0" parent="Gv0HvlbKG_xCyjRgvlj9-10">
          <mxGeometry width="150" height="150" as="geometry" />
        </mxCell>
        <mxCell id="Gv0HvlbKG_xCyjRgvlj9-12" value="" style="ellipse;whiteSpace=wrap;html=1;aspect=fixed;" vertex="1" parent="Gv0HvlbKG_xCyjRgvlj9-11">
          <mxGeometry width="150" height="150" as="geometry" />
        </mxCell>
        <mxCell id="Gv0HvlbKG_xCyjRgvlj9-13" value="Stephen Curry" style="text;strokeColor=none;fillColor=none;html=1;align=center;verticalAlign=middle;whiteSpace=wrap;rounded=0;fontSize=16;" vertex="1" parent="Gv0HvlbKG_xCyjRgvlj9-11">
          <mxGeometry x="40" y="57.5" width="70" height="35" as="geometry" />
        </mxCell>
        <mxCell id="Gv0HvlbKG_xCyjRgvlj9-14" value="" style="group" vertex="1" connectable="0" parent="Gv0HvlbKG_xCyjRgvlj9-11">
          <mxGeometry x="60" width="30" height="30" as="geometry" />
        </mxCell>
        <mxCell id="Gv0HvlbKG_xCyjRgvlj9-15" value="" style="ellipse;whiteSpace=wrap;html=1;" vertex="1" parent="Gv0HvlbKG_xCyjRgvlj9-14">
          <mxGeometry width="30" height="30" as="geometry" />
        </mxCell>
        <mxCell id="Gv0HvlbKG_xCyjRgvlj9-16" value="2" style="text;strokeColor=none;fillColor=none;html=1;align=center;verticalAlign=middle;whiteSpace=wrap;rounded=0;fontSize=16;" vertex="1" parent="Gv0HvlbKG_xCyjRgvlj9-14">
          <mxGeometry y="5" width="30" height="20" as="geometry" />
        </mxCell>
        <mxCell id="Gv0HvlbKG_xCyjRgvlj9-17" value="" style="group" vertex="1" connectable="0" parent="Gv0HvlbKG_xCyjRgvlj9-10">
          <mxGeometry x="340" y="20" width="170" height="110" as="geometry" />
        </mxCell>
        <mxCell id="Gv0HvlbKG_xCyjRgvlj9-18" value="" style="rounded=0;whiteSpace=wrap;html=1;" vertex="1" parent="Gv0HvlbKG_xCyjRgvlj9-17">
          <mxGeometry width="170" height="110" as="geometry" />
        </mxCell>
        <mxCell id="Gv0HvlbKG_xCyjRgvlj9-19" value="Golden State Warriors" style="text;strokeColor=none;fillColor=none;html=1;align=center;verticalAlign=middle;whiteSpace=wrap;rounded=0;fontSize=16;" vertex="1" parent="Gv0HvlbKG_xCyjRgvlj9-17">
          <mxGeometry x="17.5" y="20" width="135" height="70" as="geometry" />
        </mxCell>
        <mxCell id="Gv0HvlbKG_xCyjRgvlj9-20" value="" style="group" vertex="1" connectable="0" parent="Gv0HvlbKG_xCyjRgvlj9-17">
          <mxGeometry x="60" width="50" height="30" as="geometry" />
        </mxCell>
        <mxCell id="Gv0HvlbKG_xCyjRgvlj9-21" value="" style="rounded=0;whiteSpace=wrap;html=1;" vertex="1" parent="Gv0HvlbKG_xCyjRgvlj9-20">
          <mxGeometry width="50" height="30" as="geometry" />
        </mxCell>
        <mxCell id="Gv0HvlbKG_xCyjRgvlj9-22" value="2" style="text;strokeColor=none;fillColor=none;html=1;align=center;verticalAlign=middle;whiteSpace=wrap;rounded=0;fontSize=16;" vertex="1" parent="Gv0HvlbKG_xCyjRgvlj9-20">
          <mxGeometry x="6.25" y="7.5" width="37.5" height="15" as="geometry" />
        </mxCell>
        <mxCell id="Gv0HvlbKG_xCyjRgvlj9-23" value="" style="shape=flexArrow;endArrow=classic;html=1;rounded=0;fontSize=12;startSize=8;endSize=8;curved=1;exitX=1;exitY=0.5;exitDx=0;exitDy=0;exitPerimeter=0;" edge="1" parent="Gv0HvlbKG_xCyjRgvlj9-10" source="Gv0HvlbKG_xCyjRgvlj9-12">
          <mxGeometry width="50" height="50" relative="1" as="geometry">
            <mxPoint x="160" y="80" as="sourcePoint" />
            <mxPoint x="340" y="75" as="targetPoint" />
          </mxGeometry>
        </mxCell>
        <mxCell id="Gv0HvlbKG_xCyjRgvlj9-24" value="Игрок принадлежит команде" style="text;strokeColor=none;fillColor=none;html=1;align=center;verticalAlign=middle;whiteSpace=wrap;rounded=0;fontSize=16;" vertex="1" parent="Gv0HvlbKG_xCyjRgvlj9-10">
          <mxGeometry x="200" y="20" width="60" height="30" as="geometry" />
        </mxCell>
        <mxCell id="_c4S714jkFqU_NGoRyFH-1" value="" style="group" vertex="1" connectable="0" parent="1">
          <mxGeometry x="20" y="-960" width="510" height="150" as="geometry" />
        </mxCell>
        <mxCell id="_c4S714jkFqU_NGoRyFH-2" value="" style="group" vertex="1" connectable="0" parent="_c4S714jkFqU_NGoRyFH-1">
          <mxGeometry width="150" height="150" as="geometry" />
        </mxCell>
        <mxCell id="_c4S714jkFqU_NGoRyFH-3" value="" style="ellipse;whiteSpace=wrap;html=1;aspect=fixed;" vertex="1" parent="_c4S714jkFqU_NGoRyFH-2">
          <mxGeometry width="150" height="150" as="geometry" />
        </mxCell>
        <mxCell id="_c4S714jkFqU_NGoRyFH-4" value="Jayson Tatum" style="text;strokeColor=none;fillColor=none;html=1;align=center;verticalAlign=middle;whiteSpace=wrap;rounded=0;fontSize=16;" vertex="1" parent="_c4S714jkFqU_NGoRyFH-2">
          <mxGeometry x="40" y="57.5" width="70" height="35" as="geometry" />
        </mxCell>
        <mxCell id="_c4S714jkFqU_NGoRyFH-5" value="" style="group" vertex="1" connectable="0" parent="_c4S714jkFqU_NGoRyFH-2">
          <mxGeometry x="60" width="30" height="30" as="geometry" />
        </mxCell>
        <mxCell id="_c4S714jkFqU_NGoRyFH-6" value="" style="ellipse;whiteSpace=wrap;html=1;" vertex="1" parent="_c4S714jkFqU_NGoRyFH-5">
          <mxGeometry width="30" height="30" as="geometry" />
        </mxCell>
        <mxCell id="_c4S714jkFqU_NGoRyFH-7" value="3" style="text;strokeColor=none;fillColor=none;html=1;align=center;verticalAlign=middle;whiteSpace=wrap;rounded=0;fontSize=16;" vertex="1" parent="_c4S714jkFqU_NGoRyFH-5">
          <mxGeometry y="5" width="30" height="20" as="geometry" />
        </mxCell>
        <mxCell id="_c4S714jkFqU_NGoRyFH-8" value="" style="group" vertex="1" connectable="0" parent="_c4S714jkFqU_NGoRyFH-1">
          <mxGeometry x="340" y="20" width="170" height="110" as="geometry" />
        </mxCell>
        <mxCell id="_c4S714jkFqU_NGoRyFH-9" value="" style="rounded=0;whiteSpace=wrap;html=1;" vertex="1" parent="_c4S714jkFqU_NGoRyFH-8">
          <mxGeometry width="170" height="110" as="geometry" />
        </mxCell>
        <mxCell id="_c4S714jkFqU_NGoRyFH-10" value="Boston Celtics" style="text;strokeColor=none;fillColor=none;html=1;align=center;verticalAlign=middle;whiteSpace=wrap;rounded=0;fontSize=16;" vertex="1" parent="_c4S714jkFqU_NGoRyFH-8">
          <mxGeometry x="17.5" y="20" width="135" height="70" as="geometry" />
        </mxCell>
        <mxCell id="_c4S714jkFqU_NGoRyFH-11" value="" style="group" vertex="1" connectable="0" parent="_c4S714jkFqU_NGoRyFH-8">
          <mxGeometry x="60" width="50" height="30" as="geometry" />
        </mxCell>
        <mxCell id="_c4S714jkFqU_NGoRyFH-12" value="" style="rounded=0;whiteSpace=wrap;html=1;" vertex="1" parent="_c4S714jkFqU_NGoRyFH-11">
          <mxGeometry width="50" height="30" as="geometry" />
        </mxCell>
        <mxCell id="_c4S714jkFqU_NGoRyFH-13" value="3" style="text;strokeColor=none;fillColor=none;html=1;align=center;verticalAlign=middle;whiteSpace=wrap;rounded=0;fontSize=16;" vertex="1" parent="_c4S714jkFqU_NGoRyFH-11">
          <mxGeometry x="6.25" y="7.5" width="37.5" height="15" as="geometry" />
        </mxCell>
        <mxCell id="_c4S714jkFqU_NGoRyFH-14" value="" style="shape=flexArrow;endArrow=classic;html=1;rounded=0;fontSize=12;startSize=8;endSize=8;curved=1;exitX=1;exitY=0.5;exitDx=0;exitDy=0;exitPerimeter=0;" edge="1" parent="_c4S714jkFqU_NGoRyFH-1" source="_c4S714jkFqU_NGoRyFH-3">
          <mxGeometry width="50" height="50" relative="1" as="geometry">
            <mxPoint x="160" y="80" as="sourcePoint" />
            <mxPoint x="340" y="75" as="targetPoint" />
          </mxGeometry>
        </mxCell>
        <mxCell id="_c4S714jkFqU_NGoRyFH-15" value="Игрок принадлежит команде" style="text;strokeColor=none;fillColor=none;html=1;align=center;verticalAlign=middle;whiteSpace=wrap;rounded=0;fontSize=16;" vertex="1" parent="_c4S714jkFqU_NGoRyFH-1">
          <mxGeometry x="200" y="20" width="60" height="30" as="geometry" />
        </mxCell>
        <mxCell id="uU2jyqJKGKjP7qV_ZhO1-1" value="" style="group" vertex="1" connectable="0" parent="1">
          <mxGeometry x="540" y="-1350" width="510" height="150" as="geometry" />
        </mxCell>
        <mxCell id="uU2jyqJKGKjP7qV_ZhO1-2" value="" style="group" vertex="1" connectable="0" parent="uU2jyqJKGKjP7qV_ZhO1-1">
          <mxGeometry width="150" height="150" as="geometry" />
        </mxCell>
        <mxCell id="uU2jyqJKGKjP7qV_ZhO1-3" value="" style="ellipse;whiteSpace=wrap;html=1;aspect=fixed;" vertex="1" parent="uU2jyqJKGKjP7qV_ZhO1-2">
          <mxGeometry width="150" height="150" as="geometry" />
        </mxCell>
        <mxCell id="uU2jyqJKGKjP7qV_ZhO1-4" value="Zach LaVine" style="text;strokeColor=none;fillColor=none;html=1;align=center;verticalAlign=middle;whiteSpace=wrap;rounded=0;fontSize=16;" vertex="1" parent="uU2jyqJKGKjP7qV_ZhO1-2">
          <mxGeometry x="40" y="57.5" width="70" height="35" as="geometry" />
        </mxCell>
        <mxCell id="uU2jyqJKGKjP7qV_ZhO1-5" value="" style="group" vertex="1" connectable="0" parent="uU2jyqJKGKjP7qV_ZhO1-2">
          <mxGeometry x="60" width="30" height="30" as="geometry" />
        </mxCell>
        <mxCell id="uU2jyqJKGKjP7qV_ZhO1-6" value="" style="ellipse;whiteSpace=wrap;html=1;" vertex="1" parent="uU2jyqJKGKjP7qV_ZhO1-5">
          <mxGeometry width="30" height="30" as="geometry" />
        </mxCell>
        <mxCell id="uU2jyqJKGKjP7qV_ZhO1-7" value="4" style="text;strokeColor=none;fillColor=none;html=1;align=center;verticalAlign=middle;whiteSpace=wrap;rounded=0;fontSize=16;" vertex="1" parent="uU2jyqJKGKjP7qV_ZhO1-5">
          <mxGeometry y="5" width="30" height="20" as="geometry" />
        </mxCell>
        <mxCell id="uU2jyqJKGKjP7qV_ZhO1-8" value="" style="group" vertex="1" connectable="0" parent="uU2jyqJKGKjP7qV_ZhO1-1">
          <mxGeometry x="340" y="20" width="170" height="110" as="geometry" />
        </mxCell>
        <mxCell id="uU2jyqJKGKjP7qV_ZhO1-9" value="" style="rounded=0;whiteSpace=wrap;html=1;" vertex="1" parent="uU2jyqJKGKjP7qV_ZhO1-8">
          <mxGeometry width="170" height="110" as="geometry" />
        </mxCell>
        <mxCell id="uU2jyqJKGKjP7qV_ZhO1-10" value="Chicago Bulls" style="text;strokeColor=none;fillColor=none;html=1;align=center;verticalAlign=middle;whiteSpace=wrap;rounded=0;fontSize=16;" vertex="1" parent="uU2jyqJKGKjP7qV_ZhO1-8">
          <mxGeometry x="17.5" y="20" width="135" height="70" as="geometry" />
        </mxCell>
        <mxCell id="uU2jyqJKGKjP7qV_ZhO1-11" value="" style="group" vertex="1" connectable="0" parent="uU2jyqJKGKjP7qV_ZhO1-8">
          <mxGeometry x="60" width="50" height="30" as="geometry" />
        </mxCell>
        <mxCell id="uU2jyqJKGKjP7qV_ZhO1-12" value="" style="rounded=0;whiteSpace=wrap;html=1;" vertex="1" parent="uU2jyqJKGKjP7qV_ZhO1-11">
          <mxGeometry width="50" height="30" as="geometry" />
        </mxCell>
        <mxCell id="uU2jyqJKGKjP7qV_ZhO1-13" value="4" style="text;strokeColor=none;fillColor=none;html=1;align=center;verticalAlign=middle;whiteSpace=wrap;rounded=0;fontSize=16;" vertex="1" parent="uU2jyqJKGKjP7qV_ZhO1-11">
          <mxGeometry x="6.25" y="7.5" width="37.5" height="15" as="geometry" />
        </mxCell>
        <mxCell id="uU2jyqJKGKjP7qV_ZhO1-14" value="" style="shape=flexArrow;endArrow=classic;html=1;rounded=0;fontSize=12;startSize=8;endSize=8;curved=1;exitX=1;exitY=0.5;exitDx=0;exitDy=0;exitPerimeter=0;" edge="1" parent="uU2jyqJKGKjP7qV_ZhO1-1" source="uU2jyqJKGKjP7qV_ZhO1-3">
          <mxGeometry width="50" height="50" relative="1" as="geometry">
            <mxPoint x="160" y="80" as="sourcePoint" />
            <mxPoint x="340" y="75" as="targetPoint" />
          </mxGeometry>
        </mxCell>
        <mxCell id="uU2jyqJKGKjP7qV_ZhO1-15" value="Игрок принадлежит команде" style="text;strokeColor=none;fillColor=none;html=1;align=center;verticalAlign=middle;whiteSpace=wrap;rounded=0;fontSize=16;" vertex="1" parent="uU2jyqJKGKjP7qV_ZhO1-1">
          <mxGeometry x="200" y="20" width="60" height="30" as="geometry" />
        </mxCell>
        <mxCell id="nMVVb59L4scAXpB3Sjzg-14" value="" style="group" vertex="1" connectable="0" parent="1">
          <mxGeometry x="550" y="-1160" width="510" height="150" as="geometry" />
        </mxCell>
        <mxCell id="nMVVb59L4scAXpB3Sjzg-15" value="" style="group" vertex="1" connectable="0" parent="nMVVb59L4scAXpB3Sjzg-14">
          <mxGeometry width="150" height="150" as="geometry" />
        </mxCell>
        <mxCell id="nMVVb59L4scAXpB3Sjzg-16" value="" style="ellipse;whiteSpace=wrap;html=1;aspect=fixed;" vertex="1" parent="nMVVb59L4scAXpB3Sjzg-15">
          <mxGeometry width="150" height="150" as="geometry" />
        </mxCell>
        <mxCell id="nMVVb59L4scAXpB3Sjzg-17" value="Jimmy Butler" style="text;strokeColor=none;fillColor=none;html=1;align=center;verticalAlign=middle;whiteSpace=wrap;rounded=0;fontSize=16;" vertex="1" parent="nMVVb59L4scAXpB3Sjzg-15">
          <mxGeometry x="40" y="57.5" width="70" height="35" as="geometry" />
        </mxCell>
        <mxCell id="nMVVb59L4scAXpB3Sjzg-18" value="" style="group" vertex="1" connectable="0" parent="nMVVb59L4scAXpB3Sjzg-15">
          <mxGeometry x="60" width="30" height="30" as="geometry" />
        </mxCell>
        <mxCell id="nMVVb59L4scAXpB3Sjzg-19" value="" style="ellipse;whiteSpace=wrap;html=1;" vertex="1" parent="nMVVb59L4scAXpB3Sjzg-18">
          <mxGeometry width="30" height="30" as="geometry" />
        </mxCell>
        <mxCell id="nMVVb59L4scAXpB3Sjzg-20" value="5" style="text;strokeColor=none;fillColor=none;html=1;align=center;verticalAlign=middle;whiteSpace=wrap;rounded=0;fontSize=16;" vertex="1" parent="nMVVb59L4scAXpB3Sjzg-18">
          <mxGeometry y="5" width="30" height="20" as="geometry" />
        </mxCell>
        <mxCell id="nMVVb59L4scAXpB3Sjzg-21" value="" style="group" vertex="1" connectable="0" parent="nMVVb59L4scAXpB3Sjzg-14">
          <mxGeometry x="340" y="20" width="170" height="110" as="geometry" />
        </mxCell>
        <mxCell id="nMVVb59L4scAXpB3Sjzg-22" value="" style="rounded=0;whiteSpace=wrap;html=1;" vertex="1" parent="nMVVb59L4scAXpB3Sjzg-21">
          <mxGeometry width="170" height="110" as="geometry" />
        </mxCell>
        <mxCell id="nMVVb59L4scAXpB3Sjzg-23" value="Miami Heat" style="text;strokeColor=none;fillColor=none;html=1;align=center;verticalAlign=middle;whiteSpace=wrap;rounded=0;fontSize=16;" vertex="1" parent="nMVVb59L4scAXpB3Sjzg-21">
          <mxGeometry x="17.5" y="20" width="135" height="70" as="geometry" />
        </mxCell>
        <mxCell id="nMVVb59L4scAXpB3Sjzg-24" value="" style="group" vertex="1" connectable="0" parent="nMVVb59L4scAXpB3Sjzg-21">
          <mxGeometry x="60" width="50" height="30" as="geometry" />
        </mxCell>
        <mxCell id="nMVVb59L4scAXpB3Sjzg-25" value="" style="rounded=0;whiteSpace=wrap;html=1;" vertex="1" parent="nMVVb59L4scAXpB3Sjzg-24">
          <mxGeometry width="50" height="30" as="geometry" />
        </mxCell>
        <mxCell id="nMVVb59L4scAXpB3Sjzg-26" value="5" style="text;strokeColor=none;fillColor=none;html=1;align=center;verticalAlign=middle;whiteSpace=wrap;rounded=0;fontSize=16;" vertex="1" parent="nMVVb59L4scAXpB3Sjzg-24">
          <mxGeometry x="6.25" y="7.5" width="37.5" height="15" as="geometry" />
        </mxCell>
        <mxCell id="nMVVb59L4scAXpB3Sjzg-27" value="" style="shape=flexArrow;endArrow=classic;html=1;rounded=0;fontSize=12;startSize=8;endSize=8;curved=1;exitX=1;exitY=0.5;exitDx=0;exitDy=0;exitPerimeter=0;" edge="1" parent="nMVVb59L4scAXpB3Sjzg-14" source="nMVVb59L4scAXpB3Sjzg-16">
          <mxGeometry width="50" height="50" relative="1" as="geometry">
            <mxPoint x="160" y="80" as="sourcePoint" />
            <mxPoint x="340" y="75" as="targetPoint" />
          </mxGeometry>
        </mxCell>
        <mxCell id="nMVVb59L4scAXpB3Sjzg-28" value="Игрок принадлежит команде" style="text;strokeColor=none;fillColor=none;html=1;align=center;verticalAlign=middle;whiteSpace=wrap;rounded=0;fontSize=16;" vertex="1" parent="nMVVb59L4scAXpB3Sjzg-14">
          <mxGeometry x="200" y="20" width="60" height="30" as="geometry" />
        </mxCell>
        <mxCell id="8m5Rfx_X8_XEw_mCiq84-1" value="" style="group" vertex="1" connectable="0" parent="1">
          <mxGeometry x="560" y="-970" width="510" height="150" as="geometry" />
        </mxCell>
        <mxCell id="8m5Rfx_X8_XEw_mCiq84-2" value="" style="group" vertex="1" connectable="0" parent="8m5Rfx_X8_XEw_mCiq84-1">
          <mxGeometry width="150" height="150" as="geometry" />
        </mxCell>
        <mxCell id="8m5Rfx_X8_XEw_mCiq84-3" value="" style="ellipse;whiteSpace=wrap;html=1;aspect=fixed;" vertex="1" parent="8m5Rfx_X8_XEw_mCiq84-2">
          <mxGeometry width="150" height="150" as="geometry" />
        </mxCell>
        <mxCell id="8m5Rfx_X8_XEw_mCiq84-4" value="Jalen Brunson" style="text;strokeColor=none;fillColor=none;html=1;align=center;verticalAlign=middle;whiteSpace=wrap;rounded=0;fontSize=16;" vertex="1" parent="8m5Rfx_X8_XEw_mCiq84-2">
          <mxGeometry x="40" y="57.5" width="70" height="35" as="geometry" />
        </mxCell>
        <mxCell id="8m5Rfx_X8_XEw_mCiq84-5" value="" style="group" vertex="1" connectable="0" parent="8m5Rfx_X8_XEw_mCiq84-2">
          <mxGeometry x="60" width="30" height="30" as="geometry" />
        </mxCell>
        <mxCell id="8m5Rfx_X8_XEw_mCiq84-6" value="" style="ellipse;whiteSpace=wrap;html=1;" vertex="1" parent="8m5Rfx_X8_XEw_mCiq84-5">
          <mxGeometry width="30" height="30" as="geometry" />
        </mxCell>
        <mxCell id="8m5Rfx_X8_XEw_mCiq84-7" value="6" style="text;strokeColor=none;fillColor=none;html=1;align=center;verticalAlign=middle;whiteSpace=wrap;rounded=0;fontSize=16;" vertex="1" parent="8m5Rfx_X8_XEw_mCiq84-5">
          <mxGeometry y="5" width="30" height="20" as="geometry" />
        </mxCell>
        <mxCell id="8m5Rfx_X8_XEw_mCiq84-8" value="" style="group" vertex="1" connectable="0" parent="8m5Rfx_X8_XEw_mCiq84-1">
          <mxGeometry x="340" y="20" width="170" height="110" as="geometry" />
        </mxCell>
        <mxCell id="8m5Rfx_X8_XEw_mCiq84-9" value="" style="rounded=0;whiteSpace=wrap;html=1;" vertex="1" parent="8m5Rfx_X8_XEw_mCiq84-8">
          <mxGeometry width="170" height="110" as="geometry" />
        </mxCell>
        <mxCell id="8m5Rfx_X8_XEw_mCiq84-10" value="New York Knicks" style="text;strokeColor=none;fillColor=none;html=1;align=center;verticalAlign=middle;whiteSpace=wrap;rounded=0;fontSize=16;" vertex="1" parent="8m5Rfx_X8_XEw_mCiq84-8">
          <mxGeometry x="17.5" y="20" width="135" height="70" as="geometry" />
        </mxCell>
        <mxCell id="8m5Rfx_X8_XEw_mCiq84-11" value="" style="group" vertex="1" connectable="0" parent="8m5Rfx_X8_XEw_mCiq84-8">
          <mxGeometry x="60" width="50" height="30" as="geometry" />
        </mxCell>
        <mxCell id="8m5Rfx_X8_XEw_mCiq84-12" value="" style="rounded=0;whiteSpace=wrap;html=1;" vertex="1" parent="8m5Rfx_X8_XEw_mCiq84-11">
          <mxGeometry width="50" height="30" as="geometry" />
        </mxCell>
        <mxCell id="8m5Rfx_X8_XEw_mCiq84-13" value="6" style="text;strokeColor=none;fillColor=none;html=1;align=center;verticalAlign=middle;whiteSpace=wrap;rounded=0;fontSize=16;" vertex="1" parent="8m5Rfx_X8_XEw_mCiq84-11">
          <mxGeometry x="6.25" y="7.5" width="37.5" height="15" as="geometry" />
        </mxCell>
        <mxCell id="8m5Rfx_X8_XEw_mCiq84-14" value="" style="shape=flexArrow;endArrow=classic;html=1;rounded=0;fontSize=12;startSize=8;endSize=8;curved=1;exitX=1;exitY=0.5;exitDx=0;exitDy=0;exitPerimeter=0;" edge="1" parent="8m5Rfx_X8_XEw_mCiq84-1" source="8m5Rfx_X8_XEw_mCiq84-3">
          <mxGeometry width="50" height="50" relative="1" as="geometry">
            <mxPoint x="160" y="80" as="sourcePoint" />
            <mxPoint x="340" y="75" as="targetPoint" />
          </mxGeometry>
        </mxCell>
        <mxCell id="8m5Rfx_X8_XEw_mCiq84-15" value="Игрок принадлежит команде" style="text;strokeColor=none;fillColor=none;html=1;align=center;verticalAlign=middle;whiteSpace=wrap;rounded=0;fontSize=16;" vertex="1" parent="8m5Rfx_X8_XEw_mCiq84-1">
          <mxGeometry x="200" y="20" width="60" height="30" as="geometry" />
        </mxCell>
      </root>
    </mxGraphModel>
  </diagram>
  <diagram id="MY8TW5M8730cr273bm2Q" name="Страница — 7">
    <mxGraphModel dx="1434" dy="1022" grid="1" gridSize="10" guides="1" tooltips="1" connect="1" arrows="1" fold="1" page="0" pageScale="1" pageWidth="827" pageHeight="1169" math="0" shadow="0">
      <root>
        <mxCell id="0" />
        <mxCell id="1" parent="0" />
        <mxCell id="NAGTn1pvANr91ZjWUeU--10" value="" style="group" vertex="1" connectable="0" parent="1">
          <mxGeometry x="-280" y="-80" width="760" height="150" as="geometry" />
        </mxCell>
        <mxCell id="As5K9L08N93qhkPe3biV-1" value="" style="group" vertex="1" connectable="0" parent="NAGTn1pvANr91ZjWUeU--10">
          <mxGeometry x="310" width="150" height="150" as="geometry" />
        </mxCell>
        <mxCell id="As5K9L08N93qhkPe3biV-2" value="" style="ellipse;whiteSpace=wrap;html=1;aspect=fixed;" vertex="1" parent="As5K9L08N93qhkPe3biV-1">
          <mxGeometry width="150" height="150" as="geometry" />
        </mxCell>
        <mxCell id="As5K9L08N93qhkPe3biV-3" value="LeBron James" style="text;strokeColor=none;fillColor=none;html=1;align=center;verticalAlign=middle;whiteSpace=wrap;rounded=0;fontSize=16;" vertex="1" parent="As5K9L08N93qhkPe3biV-1">
          <mxGeometry x="40" y="57.5" width="70" height="35" as="geometry" />
        </mxCell>
        <mxCell id="As5K9L08N93qhkPe3biV-4" value="" style="group" vertex="1" connectable="0" parent="As5K9L08N93qhkPe3biV-1">
          <mxGeometry x="60" width="30" height="30" as="geometry" />
        </mxCell>
        <mxCell id="As5K9L08N93qhkPe3biV-5" value="" style="ellipse;whiteSpace=wrap;html=1;" vertex="1" parent="As5K9L08N93qhkPe3biV-4">
          <mxGeometry width="30" height="30" as="geometry" />
        </mxCell>
        <mxCell id="As5K9L08N93qhkPe3biV-6" value="1" style="text;strokeColor=none;fillColor=none;html=1;align=center;verticalAlign=middle;whiteSpace=wrap;rounded=0;fontSize=16;" vertex="1" parent="As5K9L08N93qhkPe3biV-4">
          <mxGeometry y="5" width="30" height="20" as="geometry" />
        </mxCell>
        <mxCell id="UcVh6Kr4_q8aNQUIy645-1" value="" style="group" vertex="1" connectable="0" parent="NAGTn1pvANr91ZjWUeU--10">
          <mxGeometry x="610" width="150" height="150" as="geometry" />
        </mxCell>
        <mxCell id="UcVh6Kr4_q8aNQUIy645-2" value="" style="ellipse;whiteSpace=wrap;html=1;aspect=fixed;" vertex="1" parent="UcVh6Kr4_q8aNQUIy645-1">
          <mxGeometry width="150" height="150" as="geometry" />
        </mxCell>
        <mxCell id="UcVh6Kr4_q8aNQUIy645-3" value="Stephen Curry" style="text;strokeColor=none;fillColor=none;html=1;align=center;verticalAlign=middle;whiteSpace=wrap;rounded=0;fontSize=16;" vertex="1" parent="UcVh6Kr4_q8aNQUIy645-1">
          <mxGeometry x="40" y="57.5" width="70" height="35" as="geometry" />
        </mxCell>
        <mxCell id="UcVh6Kr4_q8aNQUIy645-4" value="" style="group" vertex="1" connectable="0" parent="UcVh6Kr4_q8aNQUIy645-1">
          <mxGeometry x="60" width="30" height="30" as="geometry" />
        </mxCell>
        <mxCell id="UcVh6Kr4_q8aNQUIy645-5" value="" style="ellipse;whiteSpace=wrap;html=1;" vertex="1" parent="UcVh6Kr4_q8aNQUIy645-4">
          <mxGeometry width="30" height="30" as="geometry" />
        </mxCell>
        <mxCell id="UcVh6Kr4_q8aNQUIy645-6" value="2" style="text;strokeColor=none;fillColor=none;html=1;align=center;verticalAlign=middle;whiteSpace=wrap;rounded=0;fontSize=16;" vertex="1" parent="UcVh6Kr4_q8aNQUIy645-4">
          <mxGeometry y="5" width="30" height="20" as="geometry" />
        </mxCell>
        <mxCell id="UcVh6Kr4_q8aNQUIy645-7" value="" style="shape=flexArrow;endArrow=classic;html=1;rounded=0;fontSize=12;startSize=8;endSize=8;curved=1;entryX=0;entryY=0.5;entryDx=0;entryDy=0;" edge="1" parent="NAGTn1pvANr91ZjWUeU--10" target="UcVh6Kr4_q8aNQUIy645-2">
          <mxGeometry width="50" height="50" relative="1" as="geometry">
            <mxPoint x="460" y="74.5" as="sourcePoint" />
            <mxPoint x="640" y="74.5" as="targetPoint" />
          </mxGeometry>
        </mxCell>
        <mxCell id="UcVh6Kr4_q8aNQUIy645-8" value="соперники" style="text;strokeColor=none;fillColor=none;html=1;align=center;verticalAlign=middle;whiteSpace=wrap;rounded=0;fontSize=16;" vertex="1" parent="NAGTn1pvANr91ZjWUeU--10">
          <mxGeometry x="500" y="30" width="60" height="30" as="geometry" />
        </mxCell>
        <mxCell id="NAGTn1pvANr91ZjWUeU--1" value="" style="group" vertex="1" connectable="0" parent="NAGTn1pvANr91ZjWUeU--10">
          <mxGeometry width="150" height="150" as="geometry" />
        </mxCell>
        <mxCell id="NAGTn1pvANr91ZjWUeU--2" value="" style="ellipse;whiteSpace=wrap;html=1;aspect=fixed;" vertex="1" parent="NAGTn1pvANr91ZjWUeU--1">
          <mxGeometry width="150" height="150" as="geometry" />
        </mxCell>
        <mxCell id="NAGTn1pvANr91ZjWUeU--3" value="Kevin Durant" style="text;strokeColor=none;fillColor=none;html=1;align=center;verticalAlign=middle;whiteSpace=wrap;rounded=0;fontSize=16;" vertex="1" parent="NAGTn1pvANr91ZjWUeU--1">
          <mxGeometry x="40" y="57.5" width="70" height="35" as="geometry" />
        </mxCell>
        <mxCell id="NAGTn1pvANr91ZjWUeU--4" value="" style="group" vertex="1" connectable="0" parent="NAGTn1pvANr91ZjWUeU--1">
          <mxGeometry x="60" width="30" height="30" as="geometry" />
        </mxCell>
        <mxCell id="NAGTn1pvANr91ZjWUeU--5" value="" style="ellipse;whiteSpace=wrap;html=1;" vertex="1" parent="NAGTn1pvANr91ZjWUeU--4">
          <mxGeometry width="30" height="30" as="geometry" />
        </mxCell>
        <mxCell id="NAGTn1pvANr91ZjWUeU--6" value="10" style="text;strokeColor=none;fillColor=none;html=1;align=center;verticalAlign=middle;whiteSpace=wrap;rounded=0;fontSize=16;" vertex="1" parent="NAGTn1pvANr91ZjWUeU--4">
          <mxGeometry y="5" width="30" height="20" as="geometry" />
        </mxCell>
        <mxCell id="NAGTn1pvANr91ZjWUeU--7" value="" style="shape=flexArrow;endArrow=classic;html=1;rounded=0;fontSize=12;startSize=8;endSize=8;curved=1;exitX=0.25;exitY=1;exitDx=0;exitDy=0;" edge="1" parent="NAGTn1pvANr91ZjWUeU--10" target="As5K9L08N93qhkPe3biV-2">
          <mxGeometry width="50" height="50" relative="1" as="geometry">
            <mxPoint x="150" y="74.5" as="sourcePoint" />
            <mxPoint x="305" y="75" as="targetPoint" />
          </mxGeometry>
        </mxCell>
        <mxCell id="NAGTn1pvANr91ZjWUeU--9" value="дружеские" style="text;strokeColor=none;fillColor=none;html=1;align=center;verticalAlign=middle;whiteSpace=wrap;rounded=0;fontSize=16;" vertex="1" parent="NAGTn1pvANr91ZjWUeU--10">
          <mxGeometry x="190" y="30" width="60" height="30" as="geometry" />
        </mxCell>
        <mxCell id="NAGTn1pvANr91ZjWUeU--11" value="" style="group" vertex="1" connectable="0" parent="1">
          <mxGeometry x="-295" y="110" width="450" height="150" as="geometry" />
        </mxCell>
        <mxCell id="UcVh6Kr4_q8aNQUIy645-9" value="" style="group" vertex="1" connectable="0" parent="NAGTn1pvANr91ZjWUeU--11">
          <mxGeometry width="150" height="150" as="geometry" />
        </mxCell>
        <mxCell id="UcVh6Kr4_q8aNQUIy645-10" value="" style="ellipse;whiteSpace=wrap;html=1;aspect=fixed;" vertex="1" parent="UcVh6Kr4_q8aNQUIy645-9">
          <mxGeometry width="150" height="150" as="geometry" />
        </mxCell>
        <mxCell id="UcVh6Kr4_q8aNQUIy645-11" value="Stephen Curry" style="text;strokeColor=none;fillColor=none;html=1;align=center;verticalAlign=middle;whiteSpace=wrap;rounded=0;fontSize=16;" vertex="1" parent="UcVh6Kr4_q8aNQUIy645-9">
          <mxGeometry x="40" y="57.5" width="70" height="35" as="geometry" />
        </mxCell>
        <mxCell id="UcVh6Kr4_q8aNQUIy645-12" value="" style="group" vertex="1" connectable="0" parent="UcVh6Kr4_q8aNQUIy645-9">
          <mxGeometry x="60" width="30" height="30" as="geometry" />
        </mxCell>
        <mxCell id="UcVh6Kr4_q8aNQUIy645-13" value="" style="ellipse;whiteSpace=wrap;html=1;" vertex="1" parent="UcVh6Kr4_q8aNQUIy645-12">
          <mxGeometry width="30" height="30" as="geometry" />
        </mxCell>
        <mxCell id="UcVh6Kr4_q8aNQUIy645-14" value="2" style="text;strokeColor=none;fillColor=none;html=1;align=center;verticalAlign=middle;whiteSpace=wrap;rounded=0;fontSize=16;" vertex="1" parent="UcVh6Kr4_q8aNQUIy645-12">
          <mxGeometry y="5" width="30" height="20" as="geometry" />
        </mxCell>
        <mxCell id="UcVh6Kr4_q8aNQUIy645-15" value="" style="group" vertex="1" connectable="0" parent="NAGTn1pvANr91ZjWUeU--11">
          <mxGeometry x="300" width="150" height="150" as="geometry" />
        </mxCell>
        <mxCell id="UcVh6Kr4_q8aNQUIy645-16" value="" style="ellipse;whiteSpace=wrap;html=1;aspect=fixed;" vertex="1" parent="UcVh6Kr4_q8aNQUIy645-15">
          <mxGeometry width="150" height="150" as="geometry" />
        </mxCell>
        <mxCell id="UcVh6Kr4_q8aNQUIy645-17" value="Jason Tatum" style="text;strokeColor=none;fillColor=none;html=1;align=center;verticalAlign=middle;whiteSpace=wrap;rounded=0;fontSize=16;" vertex="1" parent="UcVh6Kr4_q8aNQUIy645-15">
          <mxGeometry x="40" y="57.5" width="70" height="35" as="geometry" />
        </mxCell>
        <mxCell id="UcVh6Kr4_q8aNQUIy645-18" value="" style="group" vertex="1" connectable="0" parent="UcVh6Kr4_q8aNQUIy645-15">
          <mxGeometry x="60" width="30" height="30" as="geometry" />
        </mxCell>
        <mxCell id="UcVh6Kr4_q8aNQUIy645-19" value="" style="ellipse;whiteSpace=wrap;html=1;" vertex="1" parent="UcVh6Kr4_q8aNQUIy645-18">
          <mxGeometry width="30" height="30" as="geometry" />
        </mxCell>
        <mxCell id="UcVh6Kr4_q8aNQUIy645-20" value="3" style="text;strokeColor=none;fillColor=none;html=1;align=center;verticalAlign=middle;whiteSpace=wrap;rounded=0;fontSize=16;" vertex="1" parent="UcVh6Kr4_q8aNQUIy645-18">
          <mxGeometry y="5" width="30" height="20" as="geometry" />
        </mxCell>
        <mxCell id="UcVh6Kr4_q8aNQUIy645-21" value="" style="shape=flexArrow;endArrow=classic;html=1;rounded=0;fontSize=12;startSize=8;endSize=8;curved=1;entryX=0;entryY=0.5;entryDx=0;entryDy=0;" edge="1" parent="NAGTn1pvANr91ZjWUeU--11" target="UcVh6Kr4_q8aNQUIy645-16">
          <mxGeometry width="50" height="50" relative="1" as="geometry">
            <mxPoint x="150" y="74.5" as="sourcePoint" />
            <mxPoint x="330" y="74.5" as="targetPoint" />
          </mxGeometry>
        </mxCell>
        <mxCell id="UcVh6Kr4_q8aNQUIy645-22" value="дружеские" style="text;strokeColor=none;fillColor=none;html=1;align=center;verticalAlign=middle;whiteSpace=wrap;rounded=0;fontSize=16;" vertex="1" parent="NAGTn1pvANr91ZjWUeU--11">
          <mxGeometry x="190" y="30" width="60" height="30" as="geometry" />
        </mxCell>
        <mxCell id="NAGTn1pvANr91ZjWUeU--12" value="" style="group" vertex="1" connectable="0" parent="1">
          <mxGeometry x="-300" y="300" width="450" height="150" as="geometry" />
        </mxCell>
        <mxCell id="UcVh6Kr4_q8aNQUIy645-23" value="" style="group" vertex="1" connectable="0" parent="NAGTn1pvANr91ZjWUeU--12">
          <mxGeometry width="150" height="150" as="geometry" />
        </mxCell>
        <mxCell id="UcVh6Kr4_q8aNQUIy645-24" value="" style="ellipse;whiteSpace=wrap;html=1;aspect=fixed;" vertex="1" parent="UcVh6Kr4_q8aNQUIy645-23">
          <mxGeometry width="150" height="150" as="geometry" />
        </mxCell>
        <mxCell id="UcVh6Kr4_q8aNQUIy645-25" value="Joel Embiid" style="text;strokeColor=none;fillColor=none;html=1;align=center;verticalAlign=middle;whiteSpace=wrap;rounded=0;fontSize=16;" vertex="1" parent="UcVh6Kr4_q8aNQUIy645-23">
          <mxGeometry x="40" y="57.5" width="70" height="35" as="geometry" />
        </mxCell>
        <mxCell id="UcVh6Kr4_q8aNQUIy645-26" value="" style="group" vertex="1" connectable="0" parent="UcVh6Kr4_q8aNQUIy645-23">
          <mxGeometry x="60" width="30" height="30" as="geometry" />
        </mxCell>
        <mxCell id="UcVh6Kr4_q8aNQUIy645-27" value="" style="ellipse;whiteSpace=wrap;html=1;" vertex="1" parent="UcVh6Kr4_q8aNQUIy645-26">
          <mxGeometry width="30" height="30" as="geometry" />
        </mxCell>
        <mxCell id="UcVh6Kr4_q8aNQUIy645-28" value="8" style="text;strokeColor=none;fillColor=none;html=1;align=center;verticalAlign=middle;whiteSpace=wrap;rounded=0;fontSize=16;" vertex="1" parent="UcVh6Kr4_q8aNQUIy645-26">
          <mxGeometry y="5" width="30" height="20" as="geometry" />
        </mxCell>
        <mxCell id="UcVh6Kr4_q8aNQUIy645-29" value="" style="group" vertex="1" connectable="0" parent="NAGTn1pvANr91ZjWUeU--12">
          <mxGeometry x="300" width="150" height="150" as="geometry" />
        </mxCell>
        <mxCell id="UcVh6Kr4_q8aNQUIy645-30" value="" style="ellipse;whiteSpace=wrap;html=1;aspect=fixed;" vertex="1" parent="UcVh6Kr4_q8aNQUIy645-29">
          <mxGeometry width="150" height="150" as="geometry" />
        </mxCell>
        <mxCell id="UcVh6Kr4_q8aNQUIy645-31" value="Jalen Green" style="text;strokeColor=none;fillColor=none;html=1;align=center;verticalAlign=middle;whiteSpace=wrap;rounded=0;fontSize=16;" vertex="1" parent="UcVh6Kr4_q8aNQUIy645-29">
          <mxGeometry x="40" y="57.5" width="70" height="35" as="geometry" />
        </mxCell>
        <mxCell id="UcVh6Kr4_q8aNQUIy645-32" value="" style="group" vertex="1" connectable="0" parent="UcVh6Kr4_q8aNQUIy645-29">
          <mxGeometry x="60" width="30" height="30" as="geometry" />
        </mxCell>
        <mxCell id="UcVh6Kr4_q8aNQUIy645-33" value="" style="ellipse;whiteSpace=wrap;html=1;" vertex="1" parent="UcVh6Kr4_q8aNQUIy645-32">
          <mxGeometry width="30" height="30" as="geometry" />
        </mxCell>
        <mxCell id="UcVh6Kr4_q8aNQUIy645-34" value="9" style="text;strokeColor=none;fillColor=none;html=1;align=center;verticalAlign=middle;whiteSpace=wrap;rounded=0;fontSize=16;" vertex="1" parent="UcVh6Kr4_q8aNQUIy645-32">
          <mxGeometry y="5" width="30" height="20" as="geometry" />
        </mxCell>
        <mxCell id="UcVh6Kr4_q8aNQUIy645-35" value="" style="shape=flexArrow;endArrow=classic;html=1;rounded=0;fontSize=12;startSize=8;endSize=8;curved=1;entryX=0;entryY=0.5;entryDx=0;entryDy=0;" edge="1" parent="NAGTn1pvANr91ZjWUeU--12" target="UcVh6Kr4_q8aNQUIy645-30">
          <mxGeometry width="50" height="50" relative="1" as="geometry">
            <mxPoint x="150" y="74.5" as="sourcePoint" />
            <mxPoint x="330" y="74.5" as="targetPoint" />
          </mxGeometry>
        </mxCell>
        <mxCell id="UcVh6Kr4_q8aNQUIy645-36" value="соперники" style="text;strokeColor=none;fillColor=none;html=1;align=center;verticalAlign=middle;whiteSpace=wrap;rounded=0;fontSize=16;" vertex="1" parent="NAGTn1pvANr91ZjWUeU--12">
          <mxGeometry x="190" y="30" width="60" height="30" as="geometry" />
        </mxCell>
      </root>
    </mxGraphModel>
  </diagram>
  <diagram id="1pWHmhiBX8yXqwwqh_Ym" name="Страница — 8">
    <mxGraphModel dx="1434" dy="1022" grid="1" gridSize="10" guides="1" tooltips="1" connect="1" arrows="1" fold="1" page="0" pageScale="1" pageWidth="827" pageHeight="1169" math="0" shadow="0">
      <root>
        <mxCell id="0" />
        <mxCell id="1" parent="0" />
        <mxCell id="pLHFekeFTBCLdFA7yzLM-1" value="" style="group" vertex="1" connectable="0" parent="1">
          <mxGeometry x="-300" y="-80" width="170" height="110" as="geometry" />
        </mxCell>
        <mxCell id="pLHFekeFTBCLdFA7yzLM-2" value="" style="rounded=0;whiteSpace=wrap;html=1;" vertex="1" parent="pLHFekeFTBCLdFA7yzLM-1">
          <mxGeometry width="170" height="110" as="geometry" />
        </mxCell>
        <mxCell id="pLHFekeFTBCLdFA7yzLM-3" value="Miami Heat" style="text;strokeColor=none;fillColor=none;html=1;align=center;verticalAlign=middle;whiteSpace=wrap;rounded=0;fontSize=16;" vertex="1" parent="pLHFekeFTBCLdFA7yzLM-1">
          <mxGeometry x="17.5" y="20" width="135" height="70" as="geometry" />
        </mxCell>
        <mxCell id="pLHFekeFTBCLdFA7yzLM-4" value="" style="group" vertex="1" connectable="0" parent="pLHFekeFTBCLdFA7yzLM-1">
          <mxGeometry x="60" width="50" height="30" as="geometry" />
        </mxCell>
        <mxCell id="pLHFekeFTBCLdFA7yzLM-5" value="" style="rounded=0;whiteSpace=wrap;html=1;" vertex="1" parent="pLHFekeFTBCLdFA7yzLM-4">
          <mxGeometry width="50" height="30" as="geometry" />
        </mxCell>
        <mxCell id="pLHFekeFTBCLdFA7yzLM-6" value="5" style="text;strokeColor=none;fillColor=none;html=1;align=center;verticalAlign=middle;whiteSpace=wrap;rounded=0;fontSize=16;" vertex="1" parent="pLHFekeFTBCLdFA7yzLM-4">
          <mxGeometry x="6.25" y="7.5" width="37.5" height="15" as="geometry" />
        </mxCell>
        <mxCell id="KL8Ld1qf8Be3k2F4w36d-1" value="" style="group" vertex="1" connectable="0" parent="1">
          <mxGeometry x="10" y="-80" width="170" height="110" as="geometry" />
        </mxCell>
        <mxCell id="KL8Ld1qf8Be3k2F4w36d-2" value="" style="rounded=0;whiteSpace=wrap;html=1;" vertex="1" parent="KL8Ld1qf8Be3k2F4w36d-1">
          <mxGeometry width="170" height="110" as="geometry" />
        </mxCell>
        <mxCell id="KL8Ld1qf8Be3k2F4w36d-3" value="Golden State Warriors" style="text;strokeColor=none;fillColor=none;html=1;align=center;verticalAlign=middle;whiteSpace=wrap;rounded=0;fontSize=16;" vertex="1" parent="KL8Ld1qf8Be3k2F4w36d-1">
          <mxGeometry x="17.5" y="20" width="135" height="70" as="geometry" />
        </mxCell>
        <mxCell id="KL8Ld1qf8Be3k2F4w36d-4" value="" style="group" vertex="1" connectable="0" parent="KL8Ld1qf8Be3k2F4w36d-1">
          <mxGeometry x="60" width="50" height="30" as="geometry" />
        </mxCell>
        <mxCell id="KL8Ld1qf8Be3k2F4w36d-5" value="" style="rounded=0;whiteSpace=wrap;html=1;" vertex="1" parent="KL8Ld1qf8Be3k2F4w36d-4">
          <mxGeometry width="50" height="30" as="geometry" />
        </mxCell>
        <mxCell id="KL8Ld1qf8Be3k2F4w36d-6" value="2" style="text;strokeColor=none;fillColor=none;html=1;align=center;verticalAlign=middle;whiteSpace=wrap;rounded=0;fontSize=16;" vertex="1" parent="KL8Ld1qf8Be3k2F4w36d-4">
          <mxGeometry x="6.25" y="7.5" width="37.5" height="15" as="geometry" />
        </mxCell>
        <mxCell id="KL8Ld1qf8Be3k2F4w36d-7" value="" style="shape=flexArrow;endArrow=classic;html=1;rounded=0;fontSize=12;startSize=8;endSize=8;curved=1;entryX=0;entryY=0.5;entryDx=0;entryDy=0;" edge="1" parent="1" target="KL8Ld1qf8Be3k2F4w36d-2">
          <mxGeometry width="50" height="50" relative="1" as="geometry">
            <mxPoint x="-130" y="-25.5" as="sourcePoint" />
            <mxPoint x="20" y="-25.5" as="targetPoint" />
          </mxGeometry>
        </mxCell>
        <mxCell id="KL8Ld1qf8Be3k2F4w36d-8" value="East Coast Showdown" style="text;strokeColor=none;fillColor=none;html=1;align=center;verticalAlign=middle;whiteSpace=wrap;rounded=0;fontSize=16;" vertex="1" parent="1">
          <mxGeometry x="-90" y="-70" width="60" height="30" as="geometry" />
        </mxCell>
        <mxCell id="KL8Ld1qf8Be3k2F4w36d-9" value="Space City vs Big Apple" style="text;strokeColor=none;fillColor=none;html=1;align=center;verticalAlign=middle;whiteSpace=wrap;rounded=0;fontSize=16;" vertex="1" parent="1">
          <mxGeometry x="-117.5" y="90" width="115" height="20" as="geometry" />
        </mxCell>
        <mxCell id="bH-R4ZYhnrthwoj7b81d-1" value="" style="group" vertex="1" connectable="0" parent="1">
          <mxGeometry x="-300" y="70" width="170" height="110" as="geometry" />
        </mxCell>
        <mxCell id="bH-R4ZYhnrthwoj7b81d-2" value="" style="rounded=0;whiteSpace=wrap;html=1;" vertex="1" parent="bH-R4ZYhnrthwoj7b81d-1">
          <mxGeometry width="170" height="110" as="geometry" />
        </mxCell>
        <mxCell id="bH-R4ZYhnrthwoj7b81d-3" value="Houston Rockets" style="text;strokeColor=none;fillColor=none;html=1;align=center;verticalAlign=middle;whiteSpace=wrap;rounded=0;fontSize=16;" vertex="1" parent="bH-R4ZYhnrthwoj7b81d-1">
          <mxGeometry x="17.5" y="20" width="135" height="70" as="geometry" />
        </mxCell>
        <mxCell id="bH-R4ZYhnrthwoj7b81d-4" value="" style="group" vertex="1" connectable="0" parent="bH-R4ZYhnrthwoj7b81d-1">
          <mxGeometry x="60" width="50" height="30" as="geometry" />
        </mxCell>
        <mxCell id="bH-R4ZYhnrthwoj7b81d-5" value="" style="rounded=0;whiteSpace=wrap;html=1;" vertex="1" parent="bH-R4ZYhnrthwoj7b81d-4">
          <mxGeometry width="50" height="30" as="geometry" />
        </mxCell>
        <mxCell id="bH-R4ZYhnrthwoj7b81d-6" value="9" style="text;strokeColor=none;fillColor=none;html=1;align=center;verticalAlign=middle;whiteSpace=wrap;rounded=0;fontSize=16;" vertex="1" parent="bH-R4ZYhnrthwoj7b81d-4">
          <mxGeometry x="6.25" y="7.5" width="37.5" height="15" as="geometry" />
        </mxCell>
        <mxCell id="bH-R4ZYhnrthwoj7b81d-7" value="" style="shape=flexArrow;endArrow=classic;html=1;rounded=0;fontSize=12;startSize=8;endSize=8;curved=1;" edge="1" parent="1">
          <mxGeometry width="50" height="50" relative="1" as="geometry">
            <mxPoint x="-130" y="124.5" as="sourcePoint" />
            <mxPoint x="10" y="124.5" as="targetPoint" />
          </mxGeometry>
        </mxCell>
        <mxCell id="UhvBvzEaOQ3sdYJ27_yL-1" value="" style="group" vertex="1" connectable="0" parent="1">
          <mxGeometry x="10" y="70" width="170" height="110" as="geometry" />
        </mxCell>
        <mxCell id="UhvBvzEaOQ3sdYJ27_yL-2" value="" style="rounded=0;whiteSpace=wrap;html=1;" vertex="1" parent="UhvBvzEaOQ3sdYJ27_yL-1">
          <mxGeometry width="170" height="110" as="geometry" />
        </mxCell>
        <mxCell id="UhvBvzEaOQ3sdYJ27_yL-3" value="Brooklyn Nets" style="text;strokeColor=none;fillColor=none;html=1;align=center;verticalAlign=middle;whiteSpace=wrap;rounded=0;fontSize=16;" vertex="1" parent="UhvBvzEaOQ3sdYJ27_yL-1">
          <mxGeometry x="17.5" y="20" width="135" height="70" as="geometry" />
        </mxCell>
        <mxCell id="UhvBvzEaOQ3sdYJ27_yL-4" value="" style="group" vertex="1" connectable="0" parent="UhvBvzEaOQ3sdYJ27_yL-1">
          <mxGeometry x="60" width="50" height="30" as="geometry" />
        </mxCell>
        <mxCell id="UhvBvzEaOQ3sdYJ27_yL-5" value="" style="rounded=0;whiteSpace=wrap;html=1;" vertex="1" parent="UhvBvzEaOQ3sdYJ27_yL-4">
          <mxGeometry width="50" height="30" as="geometry" />
        </mxCell>
        <mxCell id="UhvBvzEaOQ3sdYJ27_yL-6" value="10" style="text;strokeColor=none;fillColor=none;html=1;align=center;verticalAlign=middle;whiteSpace=wrap;rounded=0;fontSize=16;" vertex="1" parent="UhvBvzEaOQ3sdYJ27_yL-4">
          <mxGeometry x="6.25" y="7.5" width="37.5" height="15" as="geometry" />
        </mxCell>
        <mxCell id="GpEVBhucO6X_TNY1aWnR-1" value="" style="group" vertex="1" connectable="0" parent="1">
          <mxGeometry x="-300" y="220" width="170" height="110" as="geometry" />
        </mxCell>
        <mxCell id="GpEVBhucO6X_TNY1aWnR-2" value="" style="rounded=0;whiteSpace=wrap;html=1;" vertex="1" parent="GpEVBhucO6X_TNY1aWnR-1">
          <mxGeometry width="170" height="110" as="geometry" />
        </mxCell>
        <mxCell id="GpEVBhucO6X_TNY1aWnR-3" value="Chicago Bulls" style="text;strokeColor=none;fillColor=none;html=1;align=center;verticalAlign=middle;whiteSpace=wrap;rounded=0;fontSize=16;" vertex="1" parent="GpEVBhucO6X_TNY1aWnR-1">
          <mxGeometry x="17.5" y="20" width="135" height="70" as="geometry" />
        </mxCell>
        <mxCell id="GpEVBhucO6X_TNY1aWnR-4" value="" style="group" vertex="1" connectable="0" parent="GpEVBhucO6X_TNY1aWnR-1">
          <mxGeometry x="60" width="50" height="30" as="geometry" />
        </mxCell>
        <mxCell id="GpEVBhucO6X_TNY1aWnR-5" value="" style="rounded=0;whiteSpace=wrap;html=1;" vertex="1" parent="GpEVBhucO6X_TNY1aWnR-4">
          <mxGeometry width="50" height="30" as="geometry" />
        </mxCell>
        <mxCell id="GpEVBhucO6X_TNY1aWnR-6" value="3" style="text;strokeColor=none;fillColor=none;html=1;align=center;verticalAlign=middle;whiteSpace=wrap;rounded=0;fontSize=16;" vertex="1" parent="GpEVBhucO6X_TNY1aWnR-4">
          <mxGeometry x="6.25" y="7.5" width="37.5" height="15" as="geometry" />
        </mxCell>
        <mxCell id="GpEVBhucO6X_TNY1aWnR-7" value="" style="group" vertex="1" connectable="0" parent="1">
          <mxGeometry x="10" y="220" width="170" height="110" as="geometry" />
        </mxCell>
        <mxCell id="GpEVBhucO6X_TNY1aWnR-8" value="" style="rounded=0;whiteSpace=wrap;html=1;" vertex="1" parent="GpEVBhucO6X_TNY1aWnR-7">
          <mxGeometry width="170" height="110" as="geometry" />
        </mxCell>
        <mxCell id="GpEVBhucO6X_TNY1aWnR-9" value="Miami Heat" style="text;strokeColor=none;fillColor=none;html=1;align=center;verticalAlign=middle;whiteSpace=wrap;rounded=0;fontSize=16;" vertex="1" parent="GpEVBhucO6X_TNY1aWnR-7">
          <mxGeometry x="17.5" y="20" width="135" height="70" as="geometry" />
        </mxCell>
        <mxCell id="GpEVBhucO6X_TNY1aWnR-10" value="" style="group" vertex="1" connectable="0" parent="GpEVBhucO6X_TNY1aWnR-7">
          <mxGeometry x="60" width="50" height="30" as="geometry" />
        </mxCell>
        <mxCell id="GpEVBhucO6X_TNY1aWnR-11" value="" style="rounded=0;whiteSpace=wrap;html=1;" vertex="1" parent="GpEVBhucO6X_TNY1aWnR-10">
          <mxGeometry width="50" height="30" as="geometry" />
        </mxCell>
        <mxCell id="GpEVBhucO6X_TNY1aWnR-12" value="4" style="text;strokeColor=none;fillColor=none;html=1;align=center;verticalAlign=middle;whiteSpace=wrap;rounded=0;fontSize=16;" vertex="1" parent="GpEVBhucO6X_TNY1aWnR-10">
          <mxGeometry x="6.25" y="7.5" width="37.5" height="15" as="geometry" />
        </mxCell>
        <mxCell id="GpEVBhucO6X_TNY1aWnR-13" value="" style="shape=flexArrow;endArrow=classic;html=1;rounded=0;fontSize=12;startSize=8;endSize=8;curved=1;entryX=0;entryY=0.5;entryDx=0;entryDy=0;" edge="1" parent="1" target="GpEVBhucO6X_TNY1aWnR-8">
          <mxGeometry width="50" height="50" relative="1" as="geometry">
            <mxPoint x="-130" y="274.5" as="sourcePoint" />
            <mxPoint x="20" y="274.5" as="targetPoint" />
          </mxGeometry>
        </mxCell>
        <mxCell id="GpEVBhucO6X_TNY1aWnR-14" value="Historic Rivalry" style="text;strokeColor=none;fillColor=none;html=1;align=center;verticalAlign=middle;whiteSpace=wrap;rounded=0;fontSize=16;" vertex="1" parent="1">
          <mxGeometry x="-90" y="230" width="60" height="30" as="geometry" />
        </mxCell>
      </root>
    </mxGraphModel>
  </diagram>
</mxfile>
